<?xml version="1.0" standalone="no"?>
<!DOCTYPE svg PUBLIC "-//W3C//DTD SVG 1.1//EN" "http://www.w3.org/Graphics/SVG/1.1/DTD/svg11.dtd" >
<svg xmlns="http://www.w3.org/2000/svg">
<metadata></metadata>
<defs>
<font id="tq_iconsetregular" horiz-adv-x="2048" >
<font-face units-per-em="2048" ascent="1920" descent="-128" />
<missing-glyph horiz-adv-x="1024" />
<glyph horiz-adv-x="0" d="M0 0z" />
<glyph horiz-adv-x="0" d="M0 0z" />
<glyph horiz-adv-x="0" d="M0 0z" />
<glyph unicode="&#xd;" horiz-adv-x="682" />
<glyph unicode=" " horiz-adv-x="1024" d="M0 0z" />
<glyph unicode="&#xa0;" horiz-adv-x="1024" d="M0 0z" />
<glyph unicode="&#x2000;" horiz-adv-x="947" />
<glyph unicode="&#x2001;" horiz-adv-x="1894" />
<glyph unicode="&#x2002;" horiz-adv-x="947" />
<glyph unicode="&#x2003;" horiz-adv-x="1894" />
<glyph unicode="&#x2004;" horiz-adv-x="631" />
<glyph unicode="&#x2005;" horiz-adv-x="473" />
<glyph unicode="&#x2006;" horiz-adv-x="315" />
<glyph unicode="&#x2007;" horiz-adv-x="315" />
<glyph unicode="&#x2008;" horiz-adv-x="236" />
<glyph unicode="&#x2009;" horiz-adv-x="378" />
<glyph unicode="&#x200a;" horiz-adv-x="105" />
<glyph unicode="&#x202f;" horiz-adv-x="378" />
<glyph unicode="&#x205f;" horiz-adv-x="473" />
<glyph unicode="&#x25fc;" horiz-adv-x="1000" d="M0 0z" />
<glyph unicode="&#xe600;" d="M68 -66h1558v466h-284v-182h-990v990h184v284h-468v-1558zM594 458h208l888 886v-598q0 -30 11 -56t31 -46t47 -32t55 -12q30 0 57 12t47 32q18 20 30 46t12 56v950q0 30 -12 56t-32 46t-46 32t-56 12h-950q-30 0 -56 -12t-46 -32q-20 -18 -32 -45t-12 -57t12 -56t32 -46 t47 -32t55 -12h600l-890 -888v-204z" />
<glyph unicode="&#xe601;" d="M34 888q0 -206 78 -386t212 -314t314 -212t386 -78t386 78t314 212t212 314t78 386q0 204 -78 385t-212 315t-314 212t-386 78q-204 0 -385 -78t-315 -212t-212 -315t-78 -385zM396 762v252h164q4 14 9 29t11 29l12 28t14 28l-114 114l176 178l116 -116q14 8 28 15t28 13 t29 11t29 9v164h252v-164q14 -4 29 -9t29 -11t28 -13t28 -15l116 116l178 -178l-116 -114q8 -14 14 -28l12 -28t11 -29t9 -29h164v-252h-164q-4 -16 -9 -30t-11 -30l-12 -28t-14 -26l114 -116l-176 -178l-116 116q-14 -8 -28 -15t-28 -13t-29 -11t-29 -9v-162h-252v162 q-14 4 -29 9t-29 11t-28 13t-28 15l-116 -116l-176 178l114 116q-8 12 -14 26l-12 28q-6 16 -11 30t-9 30h-164zM720 888q0 -64 24 -119t66 -97q40 -40 96 -64t118 -24t118 24t96 64q42 42 66 97t24 119q0 62 -24 117t-66 97q-40 42 -96 66t-118 24t-118 -24t-96 -66 q-42 -42 -66 -97t-24 -117z" />
<glyph unicode="&#xe602;" d="M34 888q0 -206 78 -386t212 -314t314 -212t386 -78t386 78t314 212t212 314t78 386q0 204 -78 385t-212 315t-314 212t-386 78q-204 0 -385 -78t-315 -212t-212 -315t-78 -385zM238 898l70 66l228 -246l390 484l74 -60l-2 -2l-458 -568l-2 4zM1148 662l226 226l-226 226 l66 66l226 -226l228 226l66 -66l-226 -226l226 -226l-66 -68l-228 226l-226 -226z" />
<glyph unicode="&#xe603;" d="M34 888q0 -206 78 -386t212 -314t314 -212t386 -78t386 78t314 212t212 314t78 386q0 204 -78 385t-212 315t-315 212t-385 78q-206 0 -386 -78t-314 -212t-212 -315t-78 -385zM478 594v498h206l314 314q12 12 23 16t19 2q8 -4 13 -15t5 -29v-1074q0 -18 -5 -29t-13 -13 q-8 -4 -19 0t-23 18l-314 312h-206zM1150 652q0 6 3 14t9 14q16 16 29 35t21 41q8 20 13 43t5 45q0 24 -5 47t-13 43q-8 22 -21 41t-29 35q-6 6 -9 13t-3 15t3 15t9 13q4 6 12 9t16 3t15 -3t13 -9q22 -22 39 -47t29 -55q12 -28 18 -58t6 -62q0 -30 -6 -61t-18 -59t-29 -53 t-39 -47q-6 -6 -13 -9t-15 -3t-16 3t-12 9q-6 4 -9 12t-3 16zM1284 516q0 8 3 15t9 13q30 30 54 65t38 73q16 38 25 79t9 83q0 44 -9 85t-25 79q-14 38 -38 73t-54 65q-6 6 -9 13t-3 15t3 15t9 13t13 9t15 3t16 -3t12 -9q36 -36 64 -77t46 -87q20 -46 29 -94t9 -100 q0 -50 -9 -99t-29 -93q-18 -46 -46 -87t-64 -77q-4 -6 -12 -9t-16 -3t-15 3t-13 9t-9 13t-3 15z" />
<glyph unicode="&#xe604;" d="M34 888q0 -206 78 -386t212 -314t314 -212t386 -78t386 78t314 212t212 314t78 386q0 204 -78 385t-212 315t-314 212t-386 78t-386 -78t-314 -212t-212 -315t-78 -385zM492 356v1086h804v-376q28 -12 54 -30t48 -40q22 -24 38 -52t26 -60q10 -34 11 -69t-7 -69 q-6 -32 -21 -63t-37 -57l34 -40l14 14l166 -192l-86 -76l-166 192l14 12l-34 40q-6 -6 -12 -9l-14 -7q-6 -4 -13 -7t-15 -5v-192h-804zM572 436h644v92q-48 -4 -94 9t-84 39t-67 65t-43 87q-16 54 -10 109t32 103q26 46 68 81t98 53q12 2 25 5t25 3q12 2 25 2h25v278h-644 v-926zM988 806q0 42 17 80t45 66t65 44t79 16q44 0 81 -16t65 -44t44 -66t16 -80t-16 -80t-44 -66t-65 -44t-81 -16q-42 0 -79 16t-65 44t-45 66t-17 80z" />
<glyph unicode="&#xe605;" d="M34 888q0 -206 78 -386t212 -314t314 -212t386 -78q204 0 385 78t315 212t212 314t78 386q0 204 -78 385t-212 315t-315 212t-385 78q-206 0 -386 -78t-314 -212t-212 -315t-78 -385zM676 1290q2 6 6 11t10 11q4 6 10 12t14 12l13 13t17 13q8 8 17 14t19 14q10 6 21 12 t23 12l24 12t26 10q12 6 26 10t30 8t32 7t32 5q18 2 34 3t32 1t32 -2t32 -6q16 -2 31 -6t29 -10l28 -12t26 -14q14 -8 25 -17t23 -19q10 -12 20 -23t18 -23q8 -14 15 -27t13 -29q6 -14 10 -30t6 -34q2 -14 3 -29t-1 -27q0 -14 -1 -26t-5 -24q-2 -12 -6 -22l-8 -20t-8 -19 t-10 -17q-4 -10 -10 -17t-12 -15q-6 -6 -12 -13t-12 -13l-12 -12l-12 -12t-12 -11t-10 -9q-18 -16 -34 -31t-26 -31q-12 -16 -20 -31t-14 -31q-4 -16 -7 -32t-5 -30q-2 -16 -2 -30t2 -28q0 -8 1 -16t3 -16t4 -15t2 -15l-200 -26l-14 46q-10 26 -14 50t-6 48q0 24 3 46t9 44 q6 20 17 41t25 43q16 20 34 41t42 43q4 2 8 6l8 8t9 8t9 8l9 9l9 9t8 9t8 9t7 9t5 11q4 4 6 10l4 12q2 4 4 10t2 12v13v13q-2 16 -7 30t-11 24t-16 19t-22 13q-10 6 -23 10t-25 6q-14 2 -27 2t-27 -2q-10 -2 -19 -3t-17 -3t-15 -5t-15 -7q-8 -2 -14 -6t-12 -6l-12 -8l-12 -8 q-4 -4 -9 -8t-11 -8l-8 -8l-8 -8l-8 -8t-6 -8q-4 -2 -7 -5l-5 -5zM961 364q1 14 3 28q4 14 10 27t16 25t20 21t22 15q12 8 26 12t30 6q14 2 28 1t28 -3q14 -4 26 -11t24 -15q12 -10 21 -20t17 -22q6 -12 11 -26t7 -30q2 -14 1 -29t-5 -29q-4 -12 -10 -25t-16 -25t-20 -21 t-24 -17q-12 -6 -25 -11t-29 -7t-30 -1t-26 5q-14 4 -26 10t-24 16q-12 8 -21 19t-15 23q-8 12 -12 26t-6 28q-2 16 -1 30z" />
<glyph unicode="&#xe606;" d="M34 888q0 -206 78 -386t212 -314t314 -212t386 -78t386 78t314 212t212 314t78 386q0 204 -78 385t-212 315t-314 212t-386 78t-386 -78t-314 -212t-212 -315t-78 -385zM408 906q0 130 49 243t133 197q84 86 198 135t242 49q62 0 120 -12t112 -34t103 -53t91 -71 l-230 -254q-18 18 -40 33t-46 25t-51 15t-55 5q-56 0 -106 -21t-86 -59q-38 -36 -59 -86t-21 -106q0 -58 21 -107t59 -87q36 -36 86 -58t106 -22t106 22t88 58q36 38 58 87t22 107q0 18 -3 37t-9 37q-4 18 -12 35t-16 33l282 194q24 -38 43 -78t33 -82q12 -44 19 -89t7 -93 q0 -128 -49 -241t-133 -197q-84 -86 -198 -135t-242 -49t-242 49t-198 135q-84 84 -133 197t-49 241zM838 912q0 40 15 76t43 62q26 26 62 42t76 16q20 0 40 -4t38 -12t33 -19t29 -25l-42 -46q-10 10 -21 18t-25 14q-12 6 -27 9t-29 3q-28 0 -54 -11t-44 -31 q-20 -18 -30 -43t-10 -55q0 -28 10 -53t30 -45q18 -18 44 -29t54 -11t54 11t44 29q18 20 29 45t11 53q0 10 -1 19t-3 17t-5 16t-7 16l52 36q6 -10 11 -22t9 -24q4 -14 5 -27t1 -25q0 -42 -15 -77t-41 -63q-28 -26 -64 -42t-76 -16t-76 16t-62 42q-28 28 -43 63t-15 77z" />
<glyph unicode="&#xe607;" d="M34 888q0 -206 78 -386t212 -314t314 -212t386 -78t386 78t314 212t212 314t78 386q0 204 -78 385t-212 315t-314 212t-386 78t-386 -78t-314 -212t-212 -315t-78 -385zM398 976q0 106 49 200t135 162q84 70 198 111t242 41q130 0 244 -41t198 -111q84 -68 134 -162 t50 -200t-50 -199t-134 -163t-198 -110t-244 -40h-26t-26 2q-14 0 -27 1t-25 3h-4h-4l-24 -4q-2 0 -5 -1t-5 -3l-26 -18t-68 -42q-40 -24 -90 -47t-98 -35q14 16 27 36t23 46q10 28 16 60t6 72q0 4 -1 7t-3 7l-16 18l-1 2q-1 2 -3 2q-58 36 -103 82t-77 98t-48 109t-16 117z M700 956q0 14 5 26t15 20q8 10 21 15t25 5q14 0 27 -5t21 -15q10 -8 15 -20t5 -26t-5 -26t-15 -22q-8 -8 -21 -13t-27 -5q-12 0 -25 5t-21 13q-10 10 -15 22t-5 26zM944 956q0 14 6 26t14 20q10 10 22 15t26 5t26 -5t20 -15q10 -8 15 -20t5 -26t-5 -26t-15 -22 q-8 -8 -20 -13t-26 -5t-26 5t-22 13q-8 10 -14 22t-6 26zM1190 956q0 14 5 26t13 20q10 10 22 15t26 5t26 -5t22 -15q8 -8 13 -20t5 -26t-5 -26t-13 -22q-10 -8 -22 -13t-26 -5t-26 5t-22 13q-8 10 -13 22t-5 26z" />
<glyph unicode="&#xe608;" d="M34 888q0 -206 78 -386t212 -314t314 -212t386 -78q204 0 385 78t315 212t212 314t78 386q0 204 -78 385t-212 315t-315 212t-385 78q-206 0 -386 -78t-314 -212t-212 -315t-78 -385zM556 326v1124h652l282 -284l2 -18v-822h-936zM640 408h768v674h-284v284h-484v-958z M1208 1166h154l-154 154v-154z" />
<glyph unicode="&#xe609;" d="M34 888q0 -206 78 -386t212 -314t314 -212t386 -78t386 78t314 212t212 314t78 386q0 204 -78 385t-212 315t-314 212t-386 78t-386 -78t-314 -212t-212 -315t-78 -385zM532 270v1236h700l284 -284v-18v-934h-984zM614 352h820v786h-284v284h-536v-528h738v-398h-738 v-144zM618 572h102q28 0 48 9t34 25t20 38t6 48q0 30 -8 52t-22 38q-14 14 -34 21t-44 7h-102v-238zM670 616v150h38q20 0 33 -5t21 -15q8 -12 11 -26t3 -32q0 -20 -5 -34t-13 -22t-19 -12t-21 -4h-48zM838 690q0 -26 8 -48t24 -40q14 -16 36 -26t50 -10q26 0 48 10t38 26 q14 18 22 40t8 48q0 28 -8 50t-22 40q-16 16 -38 26t-48 10q-28 0 -50 -10t-36 -26q-16 -18 -24 -40t-8 -50zM890 690q0 16 4 31t12 25q6 12 19 19t31 7q16 0 29 -7t21 -19q6 -10 10 -25t4 -31q0 -14 -4 -29t-10 -25q-8 -12 -21 -19t-29 -7q-18 0 -31 7t-19 19q-8 10 -12 25 t-4 29zM1082 690q0 -26 7 -48t23 -40q14 -16 36 -26t50 -10q22 0 40 7t32 21q14 12 22 30t10 40h-50q-2 -12 -6 -22t-10 -16q-8 -8 -17 -12t-21 -4q-18 0 -30 7t-20 19q-8 10 -11 25t-3 29q0 16 3 31t11 25q8 12 20 19t30 7q10 0 19 -3t15 -9q8 -6 12 -13t6 -17h50 q-2 22 -11 38t-23 26t-31 16t-37 6q-28 0 -50 -10t-36 -26q-16 -18 -23 -41t-7 -49zM1232 1222h156l-156 154v-154z" />
<glyph unicode="&#xe60a;" d="M34 888q0 -206 78 -386t212 -314t314 -212t386 -78q204 0 385 78t315 212t212 314t78 386q0 204 -78 385t-212 315t-315 212t-385 78q-206 0 -386 -78t-314 -212t-212 -315t-78 -385zM532 270v1236h700l284 -284v-18v-934h-984zM614 352h820v786h-284v284h-536v-528h738 v-398h-738v-144zM646 640q0 -20 7 -33t17 -23q12 -8 26 -13t28 -5q28 0 43 9t23 21t11 26t3 26v162h-52v-160q0 -6 -1 -13t-3 -13t-8 -10t-16 -4t-16 3t-8 9q-4 6 -5 13t-1 15v12h-48v-22zM834 572h52v86h54q22 0 38 6t26 18q10 10 14 24t4 28t-4 28t-14 24q-10 12 -26 18 t-38 6h-106v-238zM886 698v72h40q10 0 18 -1t14 -5t10 -11t4 -19t-4 -19t-10 -11q-6 -2 -14 -4t-18 -2h-40zM1028 690q0 -26 8 -48t24 -40q14 -16 36 -26t50 -10q8 0 17 2t17 6t16 10t16 16l4 -28h34v130h-100v-40h52q0 -12 -5 -22t-11 -16q-8 -6 -18 -10t-22 -4 q-18 0 -30 7t-20 19q-8 10 -11 25t-3 29q0 16 3 31t11 25q8 12 20 19t30 7q10 0 18 -2t14 -8q6 -4 11 -12t7 -18h50q-2 20 -11 36t-23 26q-14 12 -31 17t-35 5q-28 0 -50 -10t-36 -26q-16 -18 -24 -40t-8 -50zM1232 1222h156l-156 154v-154z" />
<glyph unicode="&#xe60b;" d="M34 888q0 -206 78 -386t212 -314t314 -212t386 -78q204 0 385 78t315 212t212 314t78 386q0 204 -78 385t-212 315t-315 212t-385 78q-206 0 -386 -78t-314 -212t-212 -315t-78 -385zM532 270v1236h700l284 -284v-18v-934h-984zM614 352h820v786h-284v284h-536v-528h738 v-398h-738v-144zM662 572h52v86h54q22 0 38 6t26 18q10 10 14 24t4 28t-4 28t-14 24q-10 12 -26 18t-38 6h-106v-238zM714 698v72h40q10 0 18 -1t14 -5t10 -11t4 -19t-4 -19t-10 -11q-6 -2 -14 -4t-18 -2h-40zM866 572h104q26 0 47 9t33 25q14 16 21 38t7 48q0 30 -8 52 t-24 38q-14 14 -34 21t-42 7h-104v-238zM920 616v150h36q20 0 33 -5t21 -15q8 -12 12 -26t4 -32q0 -20 -5 -34t-13 -22q-10 -8 -20 -12t-22 -4h-46zM1098 572h52v98h100v42h-100v54h114v44h-166v-238zM1232 1222h156l-156 154v-154z" />
<glyph unicode="&#xe60c;" d="M34 888q0 -206 78 -386t212 -314t314 -212t386 -78q204 0 385 78t315 212t212 314t78 386q0 204 -78 385t-212 315t-315 212t-385 78q-206 0 -386 -78t-314 -212t-212 -315t-78 -385zM532 270v1236h700l284 -284v-18v-934h-984zM614 352h820v786h-284v284h-536v-528h738 v-398h-738v-144zM676 572h52v94h54q10 0 17 -2t11 -8q4 -4 7 -11t3 -15q2 -8 3 -15t1 -15t1 -15t5 -13h52q-4 6 -6 13t-2 15q-2 8 -2 16v12q0 10 -2 19t-6 17q-4 6 -11 12t-15 8v2q8 4 16 9t12 13t6 17t2 19q0 14 -5 26t-13 22q-10 8 -22 13t-28 5h-130v-238zM728 702v68h58 q10 0 16 -2t12 -6q4 -4 6 -10t2 -16q0 -8 -2 -15t-6 -11q-6 -4 -12 -6t-16 -2h-58zM876 766h72v-194h52v194h72v44h-196v-44zM1082 572h52v98h100v42h-100v54h116v44h-168v-238zM1232 1222h156l-156 154v-154z" />
<glyph unicode="&#xe60d;" d="M18 888q0 -210 79 -393t215 -319q136 -138 320 -217t392 -79t392 79t320 217q136 136 215 319t79 393q0 208 -79 391t-215 321q-136 136 -320 215t-392 79t-392 -79t-320 -215q-136 -138 -215 -321t-79 -391zM522 258v1258h714l288 -288l2 -18v-952h-1004zM608 344h832 v798h-288v290h-544v-538h750v-406h-750v-144zM706 566h204v46h-134l130 156v42h-190v-46h120l-130 -154v-44zM924 566v244h54v-244h-54zM1008 566h52v88h56q24 0 40 6t26 18q10 10 14 24t4 30q0 14 -4 28t-14 26q-10 10 -26 17t-40 7h-108v-244zM1060 696v72h42q10 0 18 -1 t14 -5q8 -4 11 -11t3 -19t-3 -19t-11 -11q-6 -4 -14 -5t-18 -1h-42zM1236 1228h158l-158 156v-156z" />
<glyph unicode="&#xe60e;" d="M34 888q0 -206 78 -386t212 -314t314 -212t386 -78q204 0 385 78t315 212t212 314t78 386q0 204 -78 385t-212 315t-315 212t-385 78q-206 0 -386 -78t-314 -212t-212 -315t-78 -385zM564 336v896h298v-84h-214v-728h770v728h-214v84h300v-896h-940zM800 998q0 8 3 16 t9 14t14 9t16 3t16 -3t14 -9l120 -120v624h84v-624l120 120q6 6 14 9t16 3t16 -3t14 -9t9 -14t3 -16t-3 -16t-9 -14l-192 -192q-4 -4 -7 -6t-7 -4t-8 -3t-8 -1t-8 1t-8 3l-8 4t-6 6l-192 192q-6 6 -9 14t-3 16z" />
<glyph unicode="&#xe60f;" d="M34 888q0 -206 78 -386t212 -314t314 -212t386 -78t386 78t314 212t212 314t78 386q0 204 -78 385t-212 315t-314 212t-386 78t-386 -78t-314 -212t-212 -315t-78 -385zM323 815q1 17 3 33t6 33t10 33q6 14 13 28t15 26q6 12 15 24t19 22t22 19t26 17q12 10 27 17t31 13 q14 6 28 10l28 8l28 4t28 2q12 2 26 1t26 -3q12 -4 24 -7t22 -9q16 -6 31 -15t29 -19q12 -12 25 -24t25 -28q12 -14 23 -31t23 -37q10 -20 21 -43t21 -47l16 -40l-372 -148l2 -4q8 -20 17 -35t19 -29q10 -12 21 -21t25 -17q12 -6 26 -9t28 -3t30 3t32 9q20 10 40 22t36 28 q18 16 33 36t29 44l104 -74q-18 -34 -41 -62t-47 -50q-26 -24 -56 -42t-62 -32q-18 -6 -35 -11t-33 -9q-18 -4 -34 -5t-34 -1q-16 0 -32 2t-30 6q-16 4 -30 9t-28 11q-16 8 -29 16t-25 18q-14 10 -26 22l-24 24q-10 14 -21 29t-21 29l-17 34t-15 36q-10 22 -16 42l-12 40 l-8 36t-4 36q-2 16 -1 33zM495 868q-1 -12 1 -26t6 -29t10 -31v-2l196 78l-2 6q-4 10 -7 17t-7 15q-4 6 -7 12l-5 10q-4 4 -7 9t-7 9t-9 7t-9 7q-10 6 -20 10t-22 4q-10 0 -22 -2t-24 -6q-12 -6 -22 -12t-18 -14t-13 -18t-9 -20q-2 -12 -3 -24zM929 1074q-1 12 1 24 q0 12 2 23t6 23t8 22t10 22q6 10 13 20t17 20q8 10 18 19t20 19l24 16l24 16q14 8 28 15t30 13q6 2 13 4t15 6q6 2 13 4t15 4q6 0 14 2l16 4q8 0 17 2t19 4q6 0 13 1t13 3q6 0 11 1t11 1q4 2 9 3t9 3q6 0 10 2t8 2q8 4 17 9t17 9q8 6 15 12t15 14q6 6 13 14t13 16t11 17 t9 17l112 -78q-4 -8 -9 -16t-9 -16q-6 -8 -11 -14t-11 -12t-12 -11t-14 -9q-6 -4 -14 -8t-18 -8l-12 -4l-12 -4t-11 -3t-9 -3l12 -8l12 -8t12 -9t10 -11q6 -4 10 -10t8 -14q4 -6 8 -14t6 -16q4 -10 7 -20t5 -20t2 -21v-21q-2 -10 -4 -21t-4 -21q-4 -10 -8 -19t-10 -19 t-12 -19t-14 -17t-16 -17t-18 -17t-20 -15t-22 -13q-10 -6 -22 -12t-26 -12l-16 -6q-2 -2 -4 -2h-4l-14 -14t-10 -12t-8 -11t-8 -11l-4 -8l-4 -8v-8t2 -8q0 -4 3 -6t7 -2t10 1t12 3l90 34q18 8 35 13t33 9q14 4 28 7t26 5h24t24 -2q12 0 24 -4t22 -8q20 -6 36 -17t30 -25 t25 -32t19 -40q8 -18 12 -38t4 -38q0 -20 -4 -39t-10 -37q-6 -16 -15 -30t-19 -28t-23 -26t-27 -24q-16 -12 -32 -22l-32 -20q-18 -8 -35 -17t-37 -17q-16 -6 -33 -12t-35 -10q-18 -6 -35 -10t-35 -6q-18 -4 -35 -4h-33q-16 2 -32 6t-30 8q-18 8 -33 17t-27 21t-22 26 t-16 30l-4 12l-4 12q-2 4 -3 9t-1 9v15v13l156 62v-12t2 -10q0 -4 2 -10t6 -12q8 -20 21 -33t33 -17q18 -4 42 0t54 16q8 4 16 7t16 7q6 4 13 7t13 7t11 8t11 8q4 6 9 10t9 10q2 4 5 9t5 11q4 4 5 10t3 10q0 6 1 11t1 11q-2 6 -3 11t-3 9q-4 12 -10 20t-14 14q-6 6 -15 9 t-19 5q-10 0 -20 -1t-22 -3t-24 -5t-24 -9l-72 -26q-28 -10 -52 -18t-44 -14q-20 -4 -37 -7t-29 -3q-6 0 -12 1t-12 3t-12 5t-10 7q-6 4 -11 9t-9 11t-8 13t-8 15q0 4 -2 8t-2 8q-2 4 -2 8t-2 8v8v10q2 4 3 8t1 10q2 4 4 9t6 9q4 6 7 11t9 11q4 4 9 10t13 12q6 6 14 12 t18 12q-38 -4 -70 1t-58 21t-46 41t-34 61q-6 12 -9 24t-5 24t-3 24zM1106 1108q0 -10 2 -21t6 -21l11 -22t13 -16q6 -8 14 -13t18 -7q8 -2 18 -3t20 -1q10 2 20 5t20 7q26 10 43 23t25 29t8 36t-8 42q-6 12 -11 21t-13 15q-6 8 -14 13t-18 9q-8 4 -18 5t-20 1t-22 -3 t-24 -7q-12 -6 -21 -11t-17 -13q-8 -6 -14 -14t-10 -16q-4 -10 -6 -19t-2 -19z" />
<glyph unicode="&#xe610;" d="M34 888q0 -206 78 -386t212 -314t314 -212t386 -78t386 78t314 212t212 314t78 386q0 204 -78 385t-212 315t-314 212t-386 78t-386 -78t-314 -212t-212 -315t-78 -385zM794 1420l262 84l96 -826l-170 -30zM972 416q0 14 4 28q2 12 8 25t14 25q8 10 18 20t22 18 q10 6 23 11t29 7q14 4 27 3t27 -3q12 -2 25 -8t25 -14t21 -18t17 -22q6 -12 11 -25t7 -27q4 -14 4 -28t-4 -28q-2 -12 -8 -25t-14 -25q-10 -12 -20 -21t-20 -17q-12 -8 -25 -13t-29 -7q-14 -2 -27 -2t-27 4q-12 2 -24 8t-24 14t-21 18t-17 22q-6 10 -11 23t-9 29 q-2 14 -2 28z" />
<glyph unicode="&#xe611;" d="M34 888q0 -206 78 -386t212 -314t314 -212t386 -78q204 0 385 78t315 212t212 314t78 386q0 204 -78 385t-212 315t-315 212t-385 78q-206 0 -386 -78t-314 -212t-212 -315t-78 -385zM410 606q0 8 2 15t6 11q4 6 10 9t12 3h54v486h-54q-6 0 -12 3t-10 9t-6 12t-2 14t2 15 t6 13q4 4 10 7t12 3h54v190h848v-116l-74 -92v134h-700v-868h700v166l74 92v-334h-848v190h-54q-6 0 -12 3t-10 9q-4 4 -6 11t-2 15zM972 542l52 214l146 -120zM1066 808l340 416l146 -120l-338 -416zM1448 1278l7 8q7 8 15 16q6 10 13 18t9 10q8 10 19 17t23 9q10 2 21 0 t21 -10l62 -50q8 -8 13 -18t5 -22t-5 -24t-13 -22l-7 -9t-15 -19q-8 -8 -14 -16l-6 -8z" />
<glyph unicode="&#xe612;" d="M34 888q0 -206 78 -386t212 -314t314 -212t386 -78t386 78t314 212t212 314t78 386q0 204 -78 385t-212 315t-314 212t-386 78t-386 -78t-314 -212q-134 -136 -212 -316t-78 -384zM323 720q1 8 3 14l39 79t85 175q46 94 85 174l39 80l246 -508q2 -6 4 -14t0 -14 q-12 -34 -35 -61t-57 -47q-32 -20 -72 -31t-86 -11t-86 11t-74 31q-32 20 -55 47t-35 61q-2 6 -1 14zM406 738h334l-166 342zM528 1262l12 116l416 -40l9 9l9 9v62h116v-62q6 -4 10 -8l8 -8t7 -8t5 -10l416 -40l-10 -114l-416 38q-4 -4 -9 -8t-11 -8v-700h84l36 -56h140 v-116h-634v116h140l36 56h82v700q-4 2 -8 6l-8 8t-7 9t-7 9zM1224 616q-2 6 0 14t4 12l38 80q38 80 86 174q46 96 84 176l38 80l248 -510q2 -4 3 -12t-1 -14q-12 -34 -35 -62t-55 -48q-34 -20 -74 -30t-86 -10t-86 10t-72 30q-34 20 -57 48t-35 62zM1308 646h334l-168 342z " />
<glyph unicode="&#xe613;" d="M34 888q0 -206 78 -386t212 -314t314 -212t386 -78q204 0 385 78t315 212t212 314t78 386q0 204 -78 385t-212 315t-315 212t-385 78q-206 0 -386 -78t-314 -212t-212 -315t-78 -385zM440 482q0 28 10 52t28 42t42 29t52 11t52 -11t42 -29t29 -42t11 -52t-11 -52t-29 -42 t-42 -28t-52 -10t-52 10t-42 28t-28 42t-10 52zM440 870q0 26 10 50t28 42t42 29t52 11t52 -11t42 -29t29 -42t11 -50q0 -28 -11 -52t-29 -42q-18 -20 -42 -30t-52 -10t-52 10t-42 30q-18 18 -28 42t-10 52zM440 1256q0 28 10 52t28 42t42 28t52 10t52 -10t42 -28t29 -42 t11 -52t-11 -52t-29 -42t-42 -29t-52 -11t-52 11t-42 29t-28 42t-10 52zM862 482q0 8 3 16t7 14q6 4 13 8t13 4h684q8 0 15 -4t11 -8q4 -6 7 -14t3 -16t-3 -15t-7 -13t-11 -9t-15 -3h-684q-6 0 -13 3t-13 9q-4 6 -7 13t-3 15zM862 870q0 8 3 15t7 13q6 6 13 9t13 3h684 q8 0 15 -3t11 -9t7 -13t3 -15q0 -10 -3 -17t-7 -13t-11 -9t-15 -3h-684q-6 0 -13 3t-13 9q-4 6 -7 13t-3 17zM862 1256q0 8 3 15t7 13q6 6 13 9t13 3h684q8 0 15 -3t11 -9t7 -13t3 -15t-3 -16t-7 -14q-4 -4 -11 -8t-15 -4h-684q-6 0 -13 4t-13 8q-4 6 -7 14t-3 16z" />
<glyph unicode="&#xe614;" d="M34 888q0 -206 78 -386t212 -314t314 -212t386 -78q204 0 385 78t315 212t212 314t78 386q0 204 -78 385t-212 315t-315 212t-385 78q-206 0 -386 -78t-314 -212t-212 -315t-78 -385zM448 494v422h1152v-422h-88v76h-976v-76h-88zM622 314v180h72v-110h660v110h72v-180 h-804zM622 1002v460h560l242 -244l2 -16v-200h-72v144h-244v244h-416v-388h-72zM1182 1218h134l-134 132v-132z" />
<glyph unicode="&#xe615;" d="M34 888q0 -206 78 -386t212 -314t314 -212t386 -78t386 78t314 212t212 314t78 386q0 204 -78 385t-212 315t-314 212t-386 78t-386 -78t-314 -212t-212 -315t-78 -385zM490 486v362q0 104 25 201t77 177q54 80 137 135t201 77l-2 -174q-52 -16 -91 -42t-65 -68 q-28 -44 -41 -106t-15 -152h212v-410h-438zM1086 486v362q0 104 25 201t77 177q54 80 137 135t199 77v-174q-52 -16 -92 -42t-66 -68q-26 -44 -39 -106t-15 -152h212v-410h-438z" />
<glyph unicode="&#xe616;" d="M34 888q0 -206 78 -386t212 -314t314 -212t386 -78q204 0 385 78t315 212t212 314t78 386q0 204 -78 385t-212 315t-314 212t-386 78t-386 -78t-314 -212t-212 -315t-78 -385zM436 456v834l48 -6v110l540 -180l540 182v-112l48 6v-834l-584 -76h-3h-1h-1h-3zM534 594 l466 -156v732l-466 156v-732zM1048 438l466 156v732l-466 -156v-732z" />
<glyph unicode="&#xe617;" d="M34 888q0 -206 78 -386t212 -314t314 -212t386 -78q204 0 385 78t315 212t212 314t78 386q0 204 -78 385t-212 315t-315 212t-385 78q-206 0 -386 -78t-314 -212t-212 -315t-78 -385zM408 906q0 128 49 239t131 195q84 82 195 131t239 49q74 0 146 -18t136 -52t119 -82 t97 -108v166q0 10 4 18t10 12q6 6 14 10t16 4q10 0 18 -4t14 -10q6 -4 9 -12t3 -18v-340h-340q-8 0 -16 3t-14 9t-10 14t-4 18q0 8 4 16t10 14t14 10t16 4h206q-36 60 -85 108t-107 80q-58 34 -124 52t-136 18q-110 0 -205 -42t-167 -112q-70 -72 -112 -167t-42 -203 q0 -10 -3 -18t-9 -14t-14 -9t-18 -3q-8 0 -16 3t-14 9t-10 14t-4 16zM434 388v340h340q10 0 18 -3t14 -9t9 -14t3 -18q0 -8 -3 -16t-9 -14t-14 -10t-18 -4h-204q34 -60 83 -108t107 -80q58 -34 124 -52t138 -18q108 0 203 42t167 112q72 72 113 167t41 203q0 10 3 18t9 14 t14 9t18 3q8 0 16 -3t14 -9t10 -14t4 -18q0 -126 -48 -237t-132 -195q-84 -82 -195 -131t-237 -49q-76 0 -147 18t-135 52q-66 34 -121 82t-97 108v-166q0 -10 -4 -18t-10 -14t-14 -9t-16 -3q-10 0 -18 3t-14 9t-9 14t-3 18z" />
<glyph unicode="&#xe618;" d="M34 888q0 -206 78 -386t212 -314t314 -212t386 -78t386 78t314 212t212 314t78 386q0 204 -78 385t-212 315t-314 212t-386 78t-386 -78t-314 -212t-212 -315t-78 -385zM268 698q0 52 20 98t54 80q34 36 81 56t99 20q6 0 11 -1t11 -1t11 -1t11 -1q4 94 44 176t104 142 t148 95t180 35q72 0 140 -21t126 -61q58 -38 103 -93t73 -121q64 -6 120 -33t96 -71q42 -44 66 -102t24 -122q0 -68 -25 -128t-71 -104q-44 -46 -104 -72t-128 -26h-940q-52 0 -99 20t-81 56q-34 34 -54 80t-20 100zM356 698q0 -36 13 -66t35 -52q22 -24 53 -37t65 -13h940 q50 0 94 19t76 53q34 32 53 76t19 94q-2 50 -20 93t-52 77q-32 32 -76 51t-94 19l-40 -2l-12 32q-18 60 -55 109t-85 85q-48 34 -107 53t-121 19q-80 0 -151 -30t-125 -84q-52 -52 -83 -123t-31 -151q0 -6 1 -13t1 -13l6 -76l-68 30q-8 4 -17 7t-17 5q-10 2 -18 3t-18 1 q-34 0 -65 -13t-53 -37q-22 -22 -35 -52t-13 -64zM902 692v454h168h15t13 -2q8 0 14 -2l12 -4q6 -4 12 -6t10 -6q6 -4 11 -8t9 -8t8 -9t8 -11l5 -10t7 -12q2 -6 3 -12t3 -14q2 -6 2 -13v-15v-13t-2 -13q0 -6 -2 -11t-4 -11t-4 -11t-4 -11q-4 -4 -7 -9t-5 -9l-8 -8l-8 -8 q-4 -2 -8 -5t-10 -7q-4 -2 -9 -4t-9 -2q-6 -2 -11 -3t-9 -1q2 -2 5 -4t5 -4t4 -5t4 -5q2 -4 4 -7t6 -7q2 -4 5 -8t7 -10t7 -11t7 -11t7 -12t7 -12l8 -12t6 -12q4 -6 8 -11t6 -11q4 -6 7 -11t5 -11q4 -4 6 -8l4 -8q4 -6 6 -10t4 -6h-108q-4 6 -7 11t-5 9t-5 9t-5 9l-4 8t-6 8 q-2 6 -5 11t-7 11t-8 13t-6 15q-4 6 -7 12t-7 10q-2 6 -5 10t-5 8t-5 8t-5 6q-4 8 -8 12t-6 8q-4 2 -7 4t-5 4q-4 2 -7 3t-7 1v-190h-88zM990 950h30q8 0 14 1t12 1t11 1t9 1q6 2 13 5t11 7t7 9t7 11q2 6 3 12t1 14q0 12 -2 21t-6 15q-4 8 -11 13t-15 7q-4 2 -9 3t-11 3h-8 h-8h-8h-8h-32v-124z" />
<glyph unicode="&#xe619;" d="M34 888q0 -206 78 -386t212 -314t314 -212t386 -78q204 0 385 78t315 212t212 314t78 386q0 204 -78 385t-212 315t-315 212t-385 78q-206 0 -386 -78t-314 -212t-212 -315t-78 -385zM472 1142q10 76 44 140q36 66 95 115t135 71t152 13t142 -45q64 -34 113 -93t71 -135 q14 -50 16 -98t-8 -94t-31 -88t-51 -78l46 -54l20 18l362 -420l-120 -102l-362 418l20 16l-46 54l-24 -16t-26 -14t-28 -11t-28 -9q-76 -24 -152 -15t-142 45q-64 36 -113 95t-71 135q-24 76 -14 152zM570 1098q0 60 22 112t62 90q38 38 90 61t110 23q60 0 112 -23t90 -61 q40 -38 62 -90t22 -112q0 -58 -22 -110t-62 -92q-38 -38 -90 -60t-112 -22q-58 0 -110 22t-90 60q-40 40 -62 92t-22 110z" />
<glyph unicode="&#xe61a;" d="M34 888q0 -206 78 -386t212 -314t314 -212t386 -78q204 0 385 78t315 212t212 314t78 386q0 204 -78 385t-212 315t-315 212t-385 78q-206 0 -386 -78t-314 -212t-212 -315t-78 -385zM518 382v154h154l274 990h156l274 -990h154v-154h-1012zM782 726h484l-58 210h-368z M892 1126h264l-60 210h-144z" />
<glyph unicode="&#xe61b;" d="M34 888q0 -206 78 -386t212 -314t314 -212t386 -78q204 0 385 78t315 212t212 314t78 386q0 204 -78 385t-212 315t-315 212t-385 78q-206 0 -386 -78t-314 -212t-212 -315t-78 -385zM470 1092q0 114 43 214t119 174q74 76 174 119t214 43t214 -43t174 -119 q76 -74 119 -174t43 -214q0 -46 -7 -93t-21 -93q-14 -44 -33 -85t-41 -73l-448 -676l-448 676q-22 32 -41 73t-33 85q-14 46 -21 93t-7 93zM546 1092q0 -40 6 -81t18 -81t28 -75t36 -63l386 -582l384 580q20 28 37 64t29 76q10 38 17 80t7 82q0 98 -38 184t-102 150 t-150 102t-184 38t-184 -38t-150 -102q-66 -64 -103 -150t-37 -184zM791 809l1 7l5 31t15 71q10 42 24 85t30 65q16 24 37 37t39 21q18 6 30 8l12 2h82h15q15 0 37 -6t46 -20t40 -40q18 -26 33 -69t25 -85q8 -42 13 -73l5 -31q0 -20 -8 -29t-20 -11q-10 -4 -19 -3l-9 1h-384 q-20 0 -31 7t-15 15q-4 10 -3 17zM898 1306q0 28 10 51t28 41t41 28t51 10q26 0 49 -10t41 -28t28 -41t10 -51q0 -26 -10 -49t-28 -41t-41 -28t-49 -10q-28 0 -51 10t-41 28t-28 41t-10 49z" />
<glyph unicode="&#xe61c;" d="M34 888q0 -206 78 -386t212 -314t314 -212t386 -78q204 0 385 78t315 212t212 314t78 386q0 204 -78 385t-212 315t-315 212t-385 78q-206 0 -386 -78t-314 -212t-212 -315t-78 -385zM508 404v928h910l-60 -72h-778v-782h782v260l74 90v-424h-928zM712 988l88 82 l288 -310l492 610l94 -76l-2 -2l-578 -718l-4 4z" />
<glyph unicode="&#xe61d;" d="M34 888q0 -206 78 -386t212 -314t314 -212t386 -78q204 0 385 78t315 212t212 314t78 386q0 204 -78 385t-212 315t-315 212t-385 78q-206 0 -386 -78t-314 -212t-212 -315t-78 -385zM300 848q78 22 193 15t225 -49t195 -123t105 -207q-60 40 -127 81t-137 77 q-68 36 -137 62t-131 36q50 -38 113 -79t131 -83t136 -83t128 -79q-108 -48 -226 -30t-216 82q-100 64 -169 164t-83 216zM596 1270q54 0 115 -24t115 -70t90 -113t40 -155q-34 40 -56 68t-44 50t-48 42t-68 44q20 -28 39 -53t41 -51q20 -26 47 -58t63 -74q-64 -16 -129 16 t-115 94q-50 60 -77 137t-13 147zM920 1390q4 42 24 82t52 68q30 -20 48 -60t22 -84t-10 -85t-52 -61q0 28 1 53t-1 47q0 20 -3 39t-7 35q-4 -16 -9 -35t-7 -39q-4 -22 -5 -46t1 -52q-34 22 -46 59t-8 79zM982 1122q0 52 8 98q4 -46 15 -99t29 -115q16 -60 39 -129t53 -145 q28 -80 45 -149t21 -137q4 -66 -8 -136t-40 -152h-37h-37h-37h-37q38 76 58 145t26 137q4 68 -5 139t-27 153q-20 82 -35 151t-23 127q-8 60 -8 112zM1074 1062q-6 56 16 105t60 83t88 50t100 8q6 -36 -6 -85t-42 -93t-77 -74t-113 -24q22 32 38 56t30 42q12 20 24 37t26 35 q-18 -8 -37 -22t-37 -30q-18 -18 -35 -40t-35 -48zM1184 724q4 94 49 175t115 137t157 80t175 4q6 -66 -20 -146t-84 -150q-56 -70 -144 -113t-206 -33q44 46 90 94t88 94q40 46 76 85t60 69q-36 -12 -78 -39t-90 -67q-46 -40 -94 -88t-94 -102z" />
<glyph unicode="&#xe61e;" d="M34 888q0 -206 78 -386t212 -314t314 -212t386 -78q204 0 385 78t315 212t212 314t78 386q0 204 -78 385t-212 315t-315 212t-385 78q-206 0 -386 -78t-314 -212t-212 -315t-78 -385zM624 1220q10 72 46 132t90 104q52 44 120 69t144 25t144 -25t120 -69q54 -44 90 -104 t46 -132q12 -82 -10 -158t-60 -148q-38 -74 -81 -146t-73 -146q-6 -12 -11 -20t-11 -14t-15 -8t-21 -2h-32v130v1v1v19t2 17q0 10 1 18t1 18q2 8 3 17t3 19q2 8 5 18t5 20l70 258q2 6 1 12t-3 10l-8 8t-10 4q0 2 -2 2h-4h-300q-6 0 -11 -2t-9 -6q-2 -4 -5 -9t-3 -11 q0 -2 1 -4t1 -4l70 -258v-2q4 -10 6 -19t4 -19q2 -8 3 -17t3 -17q0 -10 1 -19t3 -17v-19v-19v-130h-32q-12 0 -21 2t-15 8t-11 14t-11 20q-30 74 -73 146t-81 146q-38 72 -60 148t-10 158zM884 316v190h280v-190h-280zM910 1094h228l-62 -224q-2 -12 -4 -22l-4 -20 q-4 -10 -5 -20t-3 -20q-2 -8 -3 -18t-1 -20q0 -8 -1 -18t-1 -22v-1v-1v-130h-60v130q0 10 -1 21t-1 21t-1 19t-3 19t-3 20t-3 20t-5 20t-5 20v1v1zM936 224v38h176v-38h-176z" />
<glyph unicode="&#xe61f;" d="M34 888q0 -206 78 -386t212 -314t314 -212t386 -78q204 0 385 78t315 212t212 314t78 386q0 204 -78 385t-212 315t-315 212t-385 78q-206 0 -386 -78t-314 -212t-212 -315t-78 -385zM554 312v920h306v-86h-220v-750h794v750h-222v86h308v-920h-966zM796 1388q0 8 3 16 t9 14l198 198q6 6 14 9t16 3t16 -3t14 -9l198 -198q6 -6 10 -14t4 -16q0 -10 -4 -17t-10 -15q-6 -6 -14 -9t-16 -3t-16 3t-14 9l-124 126v-600h-86v600l-124 -126q-8 -6 -15 -9t-17 -3q-8 0 -16 3t-14 9q-6 8 -9 15t-3 17z" />
<glyph unicode="&#xe620;" d="M34 888q0 -206 78 -386t212 -314t314 -212t386 -78q204 0 385 78t315 212t212 314t78 386q0 204 -78 385t-212 315t-315 212t-385 78q-206 0 -386 -78t-314 -212t-212 -315t-78 -385zM728 392v984l800 -492z" />
<glyph unicode="&#xe621;" d="M34 888q0 -206 78 -386t212 -314t314 -212t386 -78q204 0 385 78t315 212t212 314t78 386q0 204 -78 385t-212 315t-315 212t-385 78q-206 0 -386 -78t-314 -212t-212 -315t-78 -385zM410 898q0 128 49 241t133 199q86 84 199 133t241 49q130 0 243 -49t197 -133 q84 -86 133 -199t49 -241q0 -130 -49 -243t-133 -197t-197 -133t-243 -49q-128 0 -241 49t-199 133q-84 84 -133 197t-49 243zM480 862q2 -36 10 -73t20 -73t29 -69t39 -65q20 14 40 26t42 22t46 20t50 18q-6 22 -9 46t-5 50q-4 24 -5 49t-1 49h-256zM480 932h256q0 26 1 50 t5 50q2 24 6 48l8 48q-26 8 -50 17t-46 19q-22 12 -42 24l-40 24q-22 -30 -39 -64t-29 -70q-12 -34 -20 -71t-10 -75zM620 528q26 -28 55 -53t63 -45q32 -20 67 -36t71 -28q-16 22 -31 48t-29 54q-14 30 -25 63t-21 69q-20 -6 -40 -14t-40 -18q-18 -8 -36 -18t-34 -22z M620 1266q16 -12 34 -21t36 -19q18 -8 39 -16t41 -16q10 36 21 69t25 63t29 55t31 47q-36 -10 -71 -26t-67 -38q-34 -20 -63 -45t-55 -53zM804 862q0 -22 2 -45t4 -45t5 -44t7 -42q22 4 43 8t43 6q22 4 45 6t45 2v154h-194zM804 932h194v154q-22 2 -45 4t-45 4t-43 6t-43 10 q-4 -22 -7 -44t-5 -44t-4 -45t-2 -45zM838 618q12 -52 30 -96t40 -78q20 -34 43 -58t47 -34v288q-20 -2 -41 -4t-41 -4t-40 -6t-38 -8zM838 1176q18 -4 38 -8t40 -6t41 -4t41 -2v286q-24 -10 -47 -34t-43 -58q-22 -34 -40 -78t-30 -96zM1066 352q24 10 48 34t44 58t38 78 t32 96l-40 8t-40 6q-20 4 -40 5t-42 3v-288zM1066 708q24 0 46 -2t44 -6q22 -2 44 -6t42 -8q4 20 7 42t7 44q2 22 3 45t1 45h-194v-154zM1066 932h194q0 22 -1 45t-3 45q-4 22 -7 44t-7 44q-20 -6 -42 -10t-44 -6q-22 -4 -44 -5t-46 -3v-154zM1066 1156q22 0 42 2l40 4 q22 2 41 6t39 8q-14 52 -32 96t-38 78t-44 58t-48 34v-286zM1190 366q36 12 71 28t67 36t61 45t55 53q-16 12 -33 22t-37 18q-18 10 -38 18t-42 14q-8 -36 -20 -69t-24 -63q-14 -28 -29 -54t-31 -48zM1190 1428q16 -22 31 -47t29 -55q12 -30 24 -63t20 -69q22 8 42 16t38 16 q20 10 37 19t33 21q-26 28 -55 53t-61 45q-32 22 -67 38t-71 26zM1310 668q24 -8 48 -18t46 -20t43 -22t41 -26q20 32 37 65t31 69q12 36 19 73t9 73h-254q0 -24 -2 -49t-4 -49q-4 -26 -7 -50t-7 -46zM1310 1128l8 -48t6 -48t4 -49t2 -51h254q-2 38 -9 75t-19 71 q-14 36 -31 70t-39 64q-18 -12 -39 -24t-43 -24q-22 -10 -46 -19t-48 -17z" />
<glyph unicode="&#xe622;" d="M34 690h258q6 -24 14 -47t18 -47q8 -22 19 -44t23 -42l-182 -182l280 -280l182 182q22 -12 43 -23t45 -21q22 -8 45 -16t47 -16v-256h396v256q24 8 47 16t45 16q24 10 45 21t43 23l182 -182l280 280l-182 182q12 20 23 42t19 44q10 22 18 46t14 48h258v396h-258 q-6 24 -14 47t-18 45q-8 22 -19 44t-23 44l182 182l-280 280l-182 -182q-22 12 -43 22t-45 20q-22 10 -45 18t-47 14v258h-396v-258q-24 -6 -47 -14t-45 -18q-24 -8 -45 -19t-43 -23l-182 182l-280 -280l182 -182q-12 -22 -23 -44t-19 -44q-10 -22 -18 -45t-14 -47h-258 v-396zM546 888q0 98 37 185t103 153q64 64 152 102t186 38t186 -38t152 -102q66 -66 103 -153t37 -185q0 -100 -37 -187t-103 -151q-64 -66 -152 -103t-186 -37t-186 37t-152 103q-66 64 -103 151t-37 187z" />
<glyph unicode="&#xe623;" horiz-adv-x="2252" d="M34 374l102 96l334 -360l570 708l108 -88l-4 -4l-668 -828l-4 4zM1362 28l330 330l-330 330l98 98l330 -330l330 330l98 -98l-330 -330l330 -330l-98 -98l-330 330l-330 -330z" />
<glyph unicode="&#xe624;" horiz-adv-x="1810" d="M34 464v848h352l534 532q20 22 39 29t33 1t22 -24t8 -48v-1830q0 -30 -8 -48t-22 -24t-33 1t-39 29l-534 534h-352zM1178 560q0 14 5 26t15 22q28 28 50 61t36 69t22 74t8 78t-8 78t-22 74t-36 69t-50 61q-10 10 -15 22t-5 26q0 12 5 25t15 23q8 10 21 14t27 4 q12 0 25 -4t23 -14q38 -38 67 -82t49 -92t30 -99t10 -105t-10 -105t-30 -99t-49 -92t-67 -82q-6 -4 -11 -8t-11 -6t-13 -4t-13 -2q-8 0 -14 2l-12 4t-12 6t-10 8q-10 10 -15 23t-5 25zM1408 330q0 6 1 13t5 13q2 6 6 11t8 11q52 52 91 111t67 123q26 66 40 136t14 142 t-14 142t-40 136q-28 64 -67 124t-91 110q-10 10 -15 23t-5 25q0 14 5 26t15 22t22 15t26 5t26 -5t22 -15q60 -60 107 -131t81 -147q32 -78 48 -161t16 -169t-16 -169t-48 -161q-32 -76 -79 -147t-109 -131q-4 -6 -10 -9t-12 -7q-6 -2 -13 -3t-13 -1t-13 1t-13 3q-6 4 -12 7 t-10 9q-4 4 -8 10t-6 12q-4 6 -5 12t-1 14z" />
<glyph unicode="&#xe625;" horiz-adv-x="2082" d="M32 -60h1434v342q14 4 26 10l24 12q14 6 25 13t23 13l58 -68l-24 -20l296 -344l156 134l-298 342l-26 -22l-60 70q38 46 65 100t41 114q12 60 10 122t-20 124q-16 58 -45 108t-67 90q-38 42 -85 73t-99 51v674h-1434v-1938zM176 82v1652h1146v-496h-42t-46 -2 q-22 -2 -44 -6t-44 -12q-98 -28 -174 -91t-122 -147t-58 -182t18 -196q24 -86 76 -154t120 -116q68 -46 150 -69t166 -15v-166h-1146zM918 742q0 76 29 143t79 117t117 79t143 29t143 -29t117 -79t79 -117t29 -143t-29 -143t-79 -117t-117 -79t-143 -29t-143 29t-117 79 t-79 117t-29 143z" />
<glyph unicode="&#xe626;" horiz-adv-x="1160" d="M34 1596q4 8 11 16t15 18q8 8 17 18t19 20t22 20t26 22q12 10 27 20t29 20q16 10 33 20t35 20q20 10 39 18t41 16q20 10 42 17t46 13q24 4 49 9t53 9q26 4 51 5t51 1q26 -2 51 -5t49 -7q26 -4 49 -11t47 -15q22 -8 43 -19t41 -23t38 -26t36 -32q16 -16 31 -33t29 -37 t25 -42t19 -44q8 -24 14 -49t10 -51q4 -24 5 -47t1 -43q-2 -22 -4 -41t-6 -37q-6 -18 -11 -35t-11 -31q-6 -16 -13 -30t-15 -28q-10 -12 -18 -24t-18 -24q-8 -12 -18 -22l-20 -20l-19 -19t-19 -17q-8 -8 -17 -16t-17 -16q-30 -24 -54 -48t-42 -48t-31 -49t-19 -51 q-8 -24 -13 -48t-7 -48t-3 -47t1 -45q2 -6 3 -12t1 -12q2 -6 3 -12t1 -12q2 -6 3 -12t3 -12q0 -6 2 -11t2 -11l-314 -42l-22 70q-14 42 -22 80t-10 76q0 36 4 71t16 69q10 32 27 65t39 67q24 32 53 65t65 65l12 12t14 12q6 6 13 12t15 14q8 6 15 13l13 13q6 8 12 15t12 13 q6 8 11 16t9 16q6 8 10 16t6 18q4 8 6 17t4 19v20t-2 20q-2 26 -9 47t-19 37q-10 18 -25 31t-33 21q-18 10 -37 16t-39 8q-20 4 -42 4t-44 -4q-14 -2 -28 -5t-26 -5q-14 -4 -26 -8t-22 -10q-12 -4 -22 -9t-20 -11t-19 -12t-17 -12l-16 -12t-14 -14q-8 -6 -15 -12t-13 -12 t-11 -12t-11 -12q-6 -4 -10 -9t-10 -9zM481 144q1 22 7 44q4 22 14 42t24 38q16 18 32 33t36 25q18 12 40 19t46 9q22 4 45 2t43 -6q20 -6 40 -16t38 -24q20 -14 34 -31t26 -37q10 -18 17 -40t11 -46q2 -24 1 -46t-7 -44q-6 -20 -16 -40t-24 -40q-14 -18 -31 -33t-37 -25 q-20 -12 -41 -19t-45 -9q-24 -4 -46 -2t-42 6q-22 6 -41 16t-37 24q-18 16 -33 32t-25 36q-10 18 -17 40t-11 46q-2 24 -1 46z" />
<glyph unicode="&#xe627;" d="M34 888q0 204 78 384t212 316q134 134 315 212t385 78q98 0 191 -19t179 -53t163 -84t143 -112l-364 -406q-30 30 -65 53t-73 39t-80 24t-88 8q-88 0 -168 -34t-138 -92q-60 -60 -94 -139t-34 -169t34 -169t94 -137q58 -60 138 -94t168 -34q90 0 169 34t139 94 q60 58 94 137t34 169q0 32 -5 62t-13 58t-20 55t-26 51l450 308q38 -58 68 -122t52 -132q20 -68 31 -140t11 -146q0 -206 -78 -386t-212 -314t-315 -212t-385 -78t-385 78t-315 212t-212 314t-78 386zM718 894q0 66 25 122t67 100q42 42 99 67t121 25q34 0 65 -7t59 -19 t53 -29t47 -39l-68 -76q-16 16 -34 29t-38 23q-22 8 -44 13t-46 5q-46 0 -86 -17t-70 -47t-48 -70t-18 -86t18 -86t48 -70t70 -48t86 -18t86 18t70 48t47 70t17 86q0 14 -1 28t-5 28t-9 26t-11 24l82 58q10 -18 18 -36t14 -38t9 -41t3 -43q0 -64 -25 -121t-67 -99t-99 -67 t-123 -25q-64 0 -121 25t-99 67t-67 99t-25 121z" />
<glyph unicode="&#xe628;" horiz-adv-x="2184" d="M36 1010q0 -102 27 -199t81 -185q52 -88 129 -165t175 -139l4 -4l4 -4l26 -30q4 -4 6 -11t2 -13q0 -66 -11 -121t-29 -101q-18 -44 -39 -79t-43 -61q80 20 164 60t154 80q68 40 113 70t45 32l8 4t8 2l42 8h7h5q22 -4 44 -6l44 -4t45 -3t45 -1q218 0 411 69t337 187 q142 118 226 276t84 338q0 178 -84 336t-226 276q-144 118 -337 187t-411 69t-411 -69t-335 -187q-144 -118 -227 -276t-83 -336zM546 974q0 24 9 44t25 36t36 25t44 9t44 -9t36 -25q14 -16 23 -36t9 -44q0 -22 -9 -43t-23 -37q-16 -14 -36 -23t-44 -9t-44 9t-36 23 q-16 16 -25 37t-9 43zM960 974q0 24 9 44t25 36t36 25t44 9q22 0 43 -9t37 -25q14 -16 23 -36t9 -44q0 -22 -9 -43t-23 -37q-16 -14 -37 -23t-43 -9q-24 0 -45 9t-35 23q-16 16 -25 37t-9 43zM1374 974q0 24 9 44t25 36q14 16 35 25t45 9q22 0 43 -9t37 -25q14 -16 23 -36 t9 -44q0 -22 -9 -43t-23 -37q-16 -14 -37 -23t-43 -9q-24 0 -45 9t-35 23q-16 16 -25 37t-9 43z" />
<glyph unicode="&#xe629;" horiz-adv-x="1706" d="M30 -102h1646v1448l-2 32l-498 500h-1146v-1980zM176 44v1688h854v-500h500v-1188h-1354zM1176 1378v272l274 -272h-274z" />
<glyph unicode="&#xe62a;" horiz-adv-x="1638" d="M30 -102h1578v1496l-2 28l-452 456h-1124v-1980zM162 30v230h1182v638h-1182v846h858v-454h456v-1260h-1314zM168 382v382h166q36 0 68 -12t54 -34q24 -24 37 -59t13 -83q0 -42 -11 -77t-31 -61q-22 -26 -55 -41t-75 -15h-166zM252 454h76q18 0 35 6t31 18q12 14 20 36 t8 54q0 28 -5 52t-19 40q-12 16 -33 25t-53 9h-60v-240zM522 572q0 42 12 79t38 65q24 26 58 42t80 16q44 0 78 -16t60 -42q24 -28 36 -65t12 -79t-12 -78t-36 -62q-26 -28 -60 -43t-78 -15q-46 0 -80 15t-58 43q-26 26 -38 62t-12 78zM606 572q0 -24 5 -47t17 -41 q14 -18 33 -29t47 -11q30 0 49 11t33 29q12 18 17 41t5 47t-5 48t-17 42q-14 18 -33 29t-49 11q-28 0 -47 -11t-33 -29q-12 -18 -17 -42t-5 -48zM910 572q0 42 13 79t37 65q24 26 59 42t79 16q32 0 60 -9t50 -27t36 -43t18 -59h-80q-2 14 -10 26t-18 22q-12 8 -26 13t-30 5 q-28 0 -48 -11t-32 -29t-18 -41t-6 -49q0 -24 6 -47t18 -41t32 -29t48 -11q20 0 35 6t25 18q12 12 18 27t8 35h82q-4 -36 -17 -65t-35 -49t-51 -31t-65 -11q-44 0 -79 15t-59 43q-24 26 -37 62t-13 78zM1154 1422v248l248 -248h-248z" />
<glyph unicode="&#xe62b;" horiz-adv-x="1638" d="M30 -102h1578v1496l-2 28l-452 456h-1124v-1980zM162 30v230h1182v638h-1182v846h858v-454h456v-1260h-1314zM214 492v32h76v-16q0 -14 2 -26t8 -20q4 -8 14 -13t24 -5q16 0 25 6t13 16q6 8 6 19v21v258h84v-260q0 -20 -4 -42t-16 -42q-14 -20 -39 -33t-67 -13 q-24 0 -47 7t-41 21q-16 14 -27 36t-11 54zM514 382v382h172q36 0 61 -10t41 -28q16 -16 23 -38t7 -46t-7 -46t-23 -38q-16 -18 -41 -28t-61 -10h-88v-138h-84zM598 584h64q16 0 29 2t23 10q10 6 16 17t6 29t-6 29t-16 17t-23 9t-29 3h-64v-116zM826 572q0 42 13 79t37 65 q24 26 59 42t79 16q30 0 57 -9t49 -27q22 -16 37 -41t19 -59h-82q-2 16 -10 28t-18 20t-23 12t-29 4q-28 0 -48 -11t-32 -29t-18 -41t-6 -49q0 -24 6 -47t18 -41t32 -29t48 -11q20 0 36 5t28 17q12 10 19 25t9 35h-86v62h160v-206h-52l-10 44q-10 -14 -23 -24t-25 -16 q-14 -6 -28 -9t-28 -3q-44 0 -79 15t-59 43q-24 26 -37 62t-13 78zM1154 1422v248l248 -248h-248z" />
<glyph unicode="&#xe62c;" horiz-adv-x="1638" d="M30 -102h1578v1496l-2 28l-452 456h-1124v-1980zM162 30v230h1182v638h-1182v846h858v-454h456v-1260h-1314zM238 382v382h172q36 0 61 -10t41 -28q16 -16 23 -38t7 -46t-7 -46t-23 -38q-16 -18 -41 -28t-61 -10h-88v-138h-84zM322 584h64q16 0 29 2t23 10q10 6 16 17 t6 29t-6 29t-16 17t-23 9t-29 3h-64v-116zM568 382v382h164q38 0 69 -12t55 -34q24 -24 37 -59t13 -83q0 -42 -11 -77t-33 -61t-54 -41t-76 -15h-164zM652 454h74q18 0 35 6t31 18q14 14 22 36t8 54q0 28 -6 52t-18 40q-14 16 -35 25t-51 9h-60v-240zM936 382v382h270v-70 h-186v-88h160v-66h-160v-158h-84zM1154 1422v248l248 -248h-248z" />
<glyph unicode="&#xe62d;" horiz-adv-x="1638" d="M30 -102h1578v1496l-2 28l-452 456h-1124v-1980zM162 30v230h1182v638h-1182v846h858v-454h456v-1260h-1314zM262 382v382h206q26 0 47 -8t35 -22q14 -16 22 -35t8 -39q0 -18 -3 -33t-11 -27t-19 -21t-27 -15v-2q16 -4 26 -13t16 -21t9 -26t5 -28v-22t2 -26q2 -12 5 -24 t9 -20h-84q-4 10 -6 21t-4 23q0 12 -1 24t-3 24q-2 16 -6 26t-12 18t-19 11t-27 3h-84v-150h-84zM346 592h92q14 0 25 3t19 9q6 8 10 18t4 24t-4 24t-10 16q-8 6 -19 10t-25 4h-92v-108zM582 694v70h312v-70h-114v-312h-84v312h-114zM912 382v382h268v-70h-184v-88h160v-66 h-160v-158h-84zM1154 1422v248l248 -248h-248z" />
<glyph unicode="&#xe62e;" horiz-adv-x="1638" d="M30 -102h1578v1496l-2 28l-452 456h-1124v-1980zM162 30v230h1182v638h-1182v846h858v-454h456v-1260h-1314zM318 382v68l204 244h-188v70h300v-66l-204 -244h210v-72h-322zM662 382v382h84v-382h-84zM794 382v382h172q34 0 59 -10t41 -28q16 -16 24 -38t8 -46t-8 -46 t-24 -38q-16 -18 -41 -28t-59 -10h-90v-138h-82zM876 584h66q14 0 28 2t24 10q10 6 16 17t6 29t-6 29t-16 17t-24 9t-28 3h-66v-116zM1154 1422v248l248 -248h-248z" />
<glyph unicode="&#xe62f;" horiz-adv-x="1638" d="M42 -102v1484h494v-140h-354v-1204h1274v1204h-354v140h494v-1484h-1554zM430 994q0 12 6 25t16 23t23 15t25 5q14 0 27 -5t23 -15l200 -198v1034h140v-1034l198 198q10 10 23 15t27 5t27 -5t21 -15q12 -10 17 -23t5 -25q0 -14 -5 -27t-17 -23l-318 -318q-4 -6 -10 -10 t-12 -6t-13 -4t-13 -2q-8 0 -15 2t-13 4t-12 6t-10 10l-318 318q-10 10 -16 23t-6 27z" />
<glyph unicode="&#xe630;" horiz-adv-x="2252" d="M35 560q-1 -26 1 -52t7 -54t13 -58q6 -30 17 -62t25 -66q10 -28 24 -55t28 -53q14 -24 31 -47t35 -43q16 -20 35 -38t39 -34t41 -29t43 -23q22 -12 45 -20t47 -12q24 -6 48 -9t50 -5q26 0 51 2t53 8q26 6 53 14t53 18q52 20 97 48t85 64t75 80t65 96l-164 116 q-20 -38 -44 -69t-50 -55q-28 -26 -58 -45t-62 -33q-26 -10 -50 -15t-46 -5t-44 5t-42 15q-18 10 -36 25t-34 35t-30 44t-26 54l-2 8l576 230l-24 60q-14 40 -31 75t-33 67q-18 30 -36 57t-36 49q-18 24 -38 43t-42 37q-20 16 -43 30t-47 24q-16 8 -35 14t-37 8q-20 4 -41 6 t-43 0q-20 0 -42 -3t-44 -7l-44 -12t-44 -16q-24 -10 -47 -21t-43 -25q-20 -12 -38 -26t-34 -30t-30 -34t-26 -38t-23 -41t-19 -45t-15 -49t-11 -51q-2 -26 -3 -52zM302 642q2 20 6 36q6 18 14 33t20 27q12 14 27 23t33 17q20 8 38 11t36 3q18 -2 34 -8t32 -16q6 -4 13 -9 t13 -11q6 -8 11 -14t11 -14q4 -6 9 -15t11 -21q4 -10 10 -22t10 -26l6 -10l-306 -122l-2 4q-10 24 -16 48t-8 44q-4 22 -2 42zM978 1000q0 -20 1 -38t3 -38q4 -18 9 -37t13 -37q22 -56 53 -95t71 -63t90 -32t110 -2q-14 -10 -27 -19t-23 -19t-19 -18t-15 -18q-8 -8 -14 -16 t-10 -16q-6 -8 -9 -15t-5 -15q-4 -8 -5 -15t-3 -13v-13v-13q2 -6 3 -13t3 -13l4 -12l4 -12q4 -12 10 -23t14 -21q6 -8 13 -16t17 -14q8 -6 17 -11t17 -9l20 -4t20 -2q18 0 43 4t57 12t69 20t81 30l112 42q20 6 39 12t35 8q18 4 35 5t33 -1q14 0 28 -5t24 -15q12 -8 21 -21 t17 -31l4 -16t2 -16q2 -8 1 -16t-3 -18q0 -8 -3 -16t-7 -16t-8 -15t-10 -15t-13 -16t-15 -14q-6 -8 -15 -14t-19 -12q-8 -6 -19 -11t-21 -11q-12 -6 -24 -11t-24 -9q-46 -20 -84 -26t-68 0t-51 25t-33 51q-2 6 -4 10t-4 10q-2 4 -3 8t-1 8q-2 2 -2 6v8q-2 4 -2 9v11 l-240 -96v-11v-9q-2 -6 -1 -12t1 -12q0 -8 1 -15t3 -15t5 -17t9 -19q10 -26 24 -48t34 -40q18 -18 42 -32t52 -26q22 -8 46 -13t50 -7q26 -4 52 -2t54 6t55 10t53 14q28 8 55 17t53 19q30 12 57 25t53 27q26 16 51 32t49 34q22 18 42 37t36 41q18 20 31 42t21 48 q12 28 17 58t5 60q0 28 -6 58t-18 60q-14 34 -31 61t-37 51q-22 22 -47 39t-55 27q-18 8 -36 12l-36 8q-18 2 -37 2t-39 -2q-18 -2 -39 -6t-45 -10t-50 -15t-54 -19l-140 -54q-10 -4 -19 -6t-15 0q-6 0 -11 3t-7 9t-2 12v12q2 6 5 13t7 13l12 16t14 18q6 8 15 18t21 22 q4 0 7 1t5 1l28 12q20 8 38 17t36 19t34 21t30 23q14 14 28 26t24 26q12 14 22 28l20 28q8 16 15 31t11 31q6 14 9 30t5 34v32t-4 32q-2 16 -6 32t-10 32q-6 14 -12 25t-12 21q-6 12 -13 21t-15 17q-6 8 -15 16t-17 14q-10 8 -20 14l-20 12q2 2 6 2t8 2q4 0 8 2t10 2 q4 2 9 3t9 3q6 2 11 4t9 4q14 6 26 12l24 12q10 8 21 16t19 16t17 18t17 22t15 24t15 26l-176 122q-6 -14 -15 -28t-17 -26q-10 -14 -20 -26t-20 -22q-12 -12 -24 -21t-24 -17t-25 -15t-27 -13q-6 -2 -13 -4t-13 -4q-8 -2 -15 -4t-15 -4q-8 0 -16 -2t-18 -4q-10 0 -20 -2 t-22 -4l-28 -4l-28 -4q-12 -2 -24 -5t-24 -5q-10 -2 -21 -5t-21 -7t-21 -8t-23 -8q-24 -10 -46 -20t-42 -22t-39 -25t-37 -27q-16 -14 -31 -28t-29 -30q-14 -14 -25 -30t-19 -32q-10 -18 -17 -34t-13 -34t-9 -36t-5 -36zM1252 1016q0 16 3 30t11 28q6 14 15 26t21 22 q14 10 29 19t33 17t36 12t34 4q16 2 32 0t30 -8t26 -14t24 -20q10 -10 19 -25t15 -31q14 -36 15 -66t-13 -56q-12 -24 -39 -45t-67 -37q-16 -8 -32 -12t-32 -4q-16 -2 -31 -1t-29 5t-26 12t-22 18q-12 12 -21 27t-15 33q-8 18 -11 34t-5 32z" />
<glyph unicode="&#xe631;" horiz-adv-x="820" d="M42 1740l418 138l156 -1324l-274 -48zM327 131q1 23 5 43q4 22 13 42t23 40q12 18 28 33t34 27q20 12 40 20t44 12t45 3t43 -5q20 -4 40 -13t40 -23q18 -12 33 -28t27 -34q12 -20 20 -40t12 -44t3 -46t-5 -44t-13 -42t-23 -38q-14 -20 -30 -35t-34 -27q-20 -10 -41 -18 t-43 -12q-24 -4 -45 -4t-43 4q-20 6 -40 15t-38 21q-18 14 -33 30t-27 34t-19 39t-13 45q-4 22 -3 45z" />
<glyph unicode="&#xe632;" horiz-adv-x="2252" d="M34 298q0 12 4 25t12 21q6 10 16 15t20 5h94v854h-94q-10 0 -20 5t-16 13q-8 10 -12 22t-4 26t4 26t12 22q6 8 16 13t20 5h94v334h1490v-204l-132 -162v234h-1226v-1522h1226v292l132 162v-586h-1490v332h-94q-10 0 -20 6t-16 14q-8 10 -12 22t-4 26zM1020 184l90 376 l258 -210zM1186 652l594 730l258 -210l-594 -730zM1856 1474l11 14t25 30q14 18 26 32t12 16q16 18 35 30t39 16t39 0t35 -16l110 -90q16 -12 23 -30t7 -38t-7 -42t-23 -40q0 -2 -12 -16t-26 -32q-14 -16 -25 -30l-11 -14z" />
<glyph unicode="&#xe633;" horiz-adv-x="2252" d="M34 514q0 -6 2 -10q18 -54 54 -97t88 -73q50 -32 113 -48t133 -16q72 0 135 16t113 48q52 30 88 73t54 97q2 4 2 10v12q-2 6 -3 11t-3 9l-386 790l-60 -123t-132 -271t-132 -272l-60 -124q-2 -4 -3 -9t-3 -11v-12zM166 552l258 534l260 -534h-518zM356 1370l648 -62 q4 -8 9 -15t11 -15l12 -12t14 -10v-1090h-130l-56 -88h-218v-180h988v180h-218l-56 88h-130v1090q4 2 8 5t8 7t7 8t7 6l648 -62l16 180l-648 62q-4 8 -9 15t-11 13q-6 8 -12 14t-14 10v96h-180v-96q-4 -2 -8 -6t-8 -6q-4 -4 -7 -8t-7 -6l-648 62zM1437 372q1 -6 1 -10 q18 -54 55 -97t87 -73q50 -32 113 -48t135 -16q70 0 133 16t115 48q50 30 87 73t53 97q2 4 2 10v12t-2 11t-4 9l-384 792l-60 -124q-60 -124 -132 -272t-132 -272l-60 -124q-2 -4 -4 -9t-2 -11q-2 -6 -1 -12zM1568 410l260 532l260 -532h-520z" />
<glyph unicode="&#xe634;" horiz-adv-x="2252" d="M34 144q0 50 19 95t53 79t79 53t95 19q52 0 96 -19t78 -53t53 -79t19 -95q0 -52 -19 -96t-53 -78t-78 -53t-96 -19q-50 0 -95 19t-79 53t-53 78t-19 96zM34 860q0 50 19 95t53 79t79 53t95 19q52 0 96 -19t78 -53t53 -79t19 -95q0 -52 -19 -96t-53 -78t-78 -53t-96 -19 q-50 0 -95 19t-79 53t-53 78t-19 96zM34 1576q0 50 19 95t53 79t79 53t95 19q52 0 96 -19t78 -53t53 -79t19 -95q0 -52 -19 -96t-53 -78t-78 -53t-96 -19q-50 0 -95 19t-79 53t-53 78t-19 96zM818 144q0 16 5 29t15 25q8 10 21 16t27 6h1264q14 0 27 -6t21 -16 q10 -12 15 -25t5 -29t-5 -30t-15 -24q-8 -10 -21 -16t-27 -6h-1264q-14 0 -27 6t-21 16q-10 10 -15 24t-5 30zM818 860q0 16 5 29t15 25q8 10 21 16t27 6h1264q14 0 27 -6t21 -16q10 -12 15 -25t5 -29t-5 -30t-15 -24q-8 -10 -21 -16t-27 -6h-1264q-14 0 -27 6t-21 16 q-10 10 -15 24t-5 30zM818 1576q0 16 5 30t15 24q8 10 21 16t27 6h1264q14 0 27 -6t21 -16q10 -10 15 -24t5 -30t-5 -30t-15 -24q-8 -10 -21 -16t-27 -6h-1264q-14 0 -27 6t-21 16q-10 10 -15 24t-5 30z" />
<glyph unicode="&#xe635;" d="M30 210h154v130h1680v-130h154v726h-1988v-726zM330 -102h1388v312h-124v-190h-1140v190h-124v-312zM330 1084h124v670h720v-420h420v-250h124v346l-2 26l-420 422h-966v-794zM1296 1456v230l230 -230h-230z" />
<glyph unicode="&#xe636;" horiz-adv-x="2252" d="M50 -102v750q0 218 52 421t162 367q110 166 283 282t417 160v-362q-112 -32 -193 -87t-137 -143q-54 -90 -82 -220t-30 -314h442v-854h-914zM1290 -102v750q0 218 51 421t163 367q110 166 283 282t415 160v-362q-110 -32 -192 -87t-136 -143q-54 -90 -82 -220t-32 -314 h442v-854h-912z" />
<glyph unicode="&#xe637;" horiz-adv-x="2252" d="M34 40l1086 -142h3h3h3h3l1086 142v1548l-90 -12v208l-1002 -336l-1000 334v-206l-92 12v-1548zM216 294v1360l864 -288v-1360zM1172 6v1360l864 288v-1360z" />
<glyph unicode="&#xe638;" d="M34 888q0 204 78 384t212 316q134 134 315 212t385 78q122 0 237 -29t219 -83t193 -132t159 -176v268q0 16 6 28t14 22q10 10 23 16t27 6q16 0 29 -6t23 -16q8 -10 14 -22t6 -28v-550h-550q-16 0 -28 6t-22 14q-10 10 -16 23t-6 29q0 14 6 27t16 23q10 8 22 14t28 6h330 q-56 96 -135 174t-173 132t-201 83t-221 29q-176 0 -330 -67t-270 -183q-114 -114 -181 -269t-67 -329q0 -16 -5 -29t-15 -21q-10 -10 -23 -16t-27 -6q-16 0 -29 6t-21 16q-10 8 -16 21t-6 29zM74 48v550h550q16 0 29 -5t21 -15q10 -10 16 -23t6 -27t-6 -27t-16 -23 q-8 -10 -21 -15t-29 -5h-330q56 -98 135 -175t173 -131t201 -83t221 -29q176 0 330 67t270 181q114 116 181 270t67 330q0 14 6 27t14 23q10 10 23 15t27 5q16 0 29 -5t23 -15q8 -10 14 -23t6 -27q0 -206 -78 -386t-212 -314t-315 -212t-385 -78q-122 0 -237 29t-219 83 t-193 131t-159 175v-268q0 -14 -6 -27t-14 -23q-10 -10 -23 -15t-27 -5q-16 0 -29 5t-21 15q-10 10 -16 23t-6 27z" />
<glyph unicode="&#xe639;" horiz-adv-x="2252" d="M34 262q0 -76 29 -142t79 -116q48 -48 115 -77t141 -29h1350q96 0 182 37t150 101t101 150t37 182q0 94 -34 177t-94 145q-60 64 -140 104t-172 46q-40 96 -104 174t-148 134q-82 56 -180 87t-202 31q-136 0 -257 -50t-213 -138t-148 -205t-64 -251q-8 2 -16 3t-16 1 t-16 1t-16 1q-74 0 -141 -29t-115 -79q-50 -50 -79 -116t-29 -142zM160 262q0 50 19 93t51 75q32 34 76 52t92 18q14 0 27 -1t25 -3q12 -4 25 -8t25 -10l96 -42l-8 110q0 4 -1 8t-1 10v9v9q0 116 44 217t120 177t177 120t217 44q90 0 174 -28t154 -78q68 -50 121 -121 t81 -157l14 -44l60 2q70 0 133 -27t111 -75q46 -46 73 -109t27 -135q0 -70 -27 -133t-73 -111q-48 -46 -111 -73t-133 -27h-1350q-48 0 -92 19t-76 51t-51 75t-19 93zM942 256h128v272q6 0 11 -2t9 -4t8 -5t10 -7q2 -2 4 -5t6 -7q2 -2 5 -6t5 -8q4 -6 7 -11t7 -11t7 -12 l7 -14q6 -6 10 -15t10 -17q4 -10 10 -20l12 -20q2 -6 4 -9t4 -7l4 -8t4 -6q4 -6 8 -13t6 -13q4 -6 7 -12t7 -12q2 -2 4 -6t4 -6l4 -8l4 -8h156q-2 0 -2 2t-2 4l-4 8t-6 8q-2 6 -6 12l-8 12t-8 14l-8 16q-6 8 -11 16t-9 18q-6 8 -11 17t-11 17q-4 8 -10 17t-10 17 q-6 8 -11 16t-9 14q-6 8 -10 15t-8 13q-4 4 -7 9t-7 9q-2 4 -5 7t-5 7q-4 2 -8 5t-8 7q8 0 15 1t13 3q8 2 15 5t13 7t13 8t13 8l11 11t9 11q6 6 10 13t8 15q4 6 7 14t7 16l4 16l4 16q2 10 2 19v17v22t-2 20t-5 19t-5 17q-4 10 -8 18t-10 16q-4 6 -10 13t-12 15q-6 6 -13 11 t-15 11q-6 4 -14 8t-18 8q-8 4 -17 6t-19 4t-20 3t-22 1h-242v-652zM1070 626v178h46h12h12t11 -1t9 -1q6 0 10 -1t8 -3q4 0 7 -1t7 -3q12 -4 21 -11t15 -17q4 -10 7 -23t3 -29q0 -10 -1 -20t-5 -18q-2 -8 -7 -15t-11 -13q-4 -2 -8 -5t-8 -5t-9 -4t-11 -2q-6 -2 -12 -3 t-14 -1q-8 -2 -18 -2h-20h-44z" />
<glyph unicode="&#xe63a;" horiz-adv-x="1912" d="M40 1310q-16 -126 22 -252q38 -128 119 -225t189 -157q106 -58 232 -73t254 21q24 8 47 17t45 19t43 22t41 26l76 -88l-32 -28l600 -694l200 172l-600 694l-34 -30l-78 92q50 58 84 128t52 146q16 78 14 158t-26 160q-36 128 -117 225t-189 157q-108 58 -234 73t-254 -21 q-126 -38 -224 -119t-156 -189t-74 -234zM202 1238q0 98 37 184t101 150t151 102t185 38t184 -38t150 -102t101 -150t37 -184t-37 -184t-101 -150q-64 -66 -150 -103t-184 -37t-185 38t-151 102t-101 150t-37 184z" />
<glyph unicode="&#xe63b;" horiz-adv-x="1844" d="M46 -102h1752v266h-266l-476 1714h-268l-476 -1714h-266v-266zM502 492l100 366h638l102 -366h-840zM694 1184l102 366h252l102 -366h-456z" />
<glyph unicode="&#xe63c;" horiz-adv-x="1502" d="M58 1184q0 -58 9 -117t25 -117q18 -56 42 -107t52 -93l564 -852l566 852q28 42 52 93t40 107q18 58 27 117t9 117q0 144 -54 270t-150 220q-94 94 -220 149t-270 55q-142 0 -268 -55t-220 -149q-96 -94 -150 -220t-54 -270zM154 1184q0 124 47 233t127 189q82 82 191 129 t231 47q124 0 233 -47t189 -129q82 -80 129 -189t47 -233q0 -50 -8 -102t-22 -102q-16 -50 -36 -95t-46 -81l-486 -732l-484 734q-26 36 -47 80t-35 94t-22 102t-8 102zM462 827q0 -9 4 -19q6 -12 19 -21t41 -9h482l11 -1q11 -1 25 3t25 15t11 37l-6 39q-6 39 -18 91 q-14 54 -32 108t-42 86q-20 34 -50 51t-58 25q-26 6 -46 7l-20 1h-102l-15 -3t-39 -11q-22 -8 -48 -25t-46 -47t-38 -83t-30 -105q-14 -52 -21 -91l-7 -39v-9zM598 1456q0 32 13 62t35 52t51 35t63 13t63 -13t51 -35t35 -52t13 -62q0 -34 -13 -64t-35 -52t-51 -35t-63 -13 t-63 13t-51 35t-35 52t-13 64z" />
<glyph unicode="&#xe63d;" horiz-adv-x="2252" d="M34 -102v1738h1706l-112 -136h-1456v-1466h1464v486l136 172v-794h-1738zM416 990l166 154l538 -582l922 1146l176 -142l-4 -6l-1082 -1342l-6 6z" />
<glyph unicode="&#xe63e;" d="M34 884q112 34 277 24t323 -70q158 -62 280 -178t150 -296q-86 58 -182 117t-196 111q-98 50 -196 88t-188 52q72 -56 162 -115t188 -119q96 -60 194 -119t184 -113q-156 -70 -324 -43t-312 119q-142 92 -241 235t-119 307zM460 1492q76 -2 164 -36t164 -100t129 -162 t57 -222q-46 56 -79 96t-63 72q-32 32 -70 61t-96 65q28 -42 55 -77t57 -73q32 -38 70 -83t90 -107q-92 -24 -186 23t-164 133q-72 86 -110 197t-18 213zM922 1664q8 60 36 118t74 96q42 -30 69 -87t33 -119q4 -64 -16 -122t-74 -90q2 42 2 78t-2 66q-2 32 -5 59t-9 49 q-8 -24 -14 -50t-10 -56t-6 -65t0 -77q-46 32 -65 86t-13 114zM1012 1278q0 74 12 140q6 -64 22 -141t40 -163q24 -88 58 -186t76 -208q40 -114 64 -213t30 -197q4 -96 -12 -196t-56 -216h-54h-54h-53h-53q56 108 85 207t35 195q6 98 -6 200t-40 220q-28 116 -49 215 t-33 185q-12 84 -12 158zM1144 1194q-8 80 23 149t87 119q54 48 126 72t144 12q8 -50 -9 -121t-61 -135q-42 -64 -110 -106t-162 -36q30 46 53 81t43 63t37 52t35 48q-26 -12 -52 -31t-52 -43q-26 -26 -51 -57t-51 -67zM1302 708q6 134 71 250t165 198q100 80 225 115t251 5 q8 -94 -29 -210t-119 -214q-82 -100 -208 -162t-296 -50q64 68 129 138t125 134q60 66 111 122t85 98q-50 -16 -111 -56t-129 -96q-66 -56 -135 -126t-135 -146z" />
<glyph unicode="&#xe63f;" horiz-adv-x="1298" d="M50 1384q16 108 69 198t133 156t182 103t214 37q114 0 215 -37t181 -103t133 -156t69 -198q18 -122 -15 -235t-89 -223t-121 -218t-111 -218q-6 -18 -14 -30t-18 -20t-23 -12t-31 -4h-48v196v1v3q0 12 1 26t1 26q2 14 3 27t3 25q2 14 4 27t6 27q2 14 5 28t7 30l2 2 l104 386q2 8 1 16t-5 14q-4 8 -11 13t-15 7q-2 0 -5 1t-5 1h-448q-8 0 -15 -4t-13 -8q-6 -6 -9 -14t-3 -16v-7t2 -5l104 -386v-2q4 -16 8 -29t6 -27t5 -27t5 -27q2 -12 3 -26t1 -26q2 -14 2 -28v-28v-196h-46q-20 0 -33 4t-23 12t-17 20t-15 30q-46 112 -110 220t-120 216 q-56 110 -90 223t-16 235zM438 32v286h420v-286h-420zM478 1196h340l-90 -334v-2q-4 -16 -8 -31t-8 -31q-2 -14 -5 -29t-5 -29t-3 -28t-3 -28q0 -16 -1 -30t-1 -30v-3v-1v-196h-92v196v31t-2 31q0 14 -2 29t-4 29l-4 28t-6 30q-2 14 -6 29t-8 31v1v3zM518 -46h262v-56h-262 v56z" />
<glyph unicode="&#xe640;" horiz-adv-x="1536" d="M42 -102v1384h462v-128h-332v-1128h1192v1128h-332v128h462v-1384h-1452zM406 1516q0 12 5 24t13 22l298 298q10 8 22 13t24 5t24 -5t22 -13l298 -298q8 -10 13 -22t5 -24t-5 -24t-13 -22q-10 -8 -22 -13t-24 -5t-24 5t-22 13l-188 188v-902h-128v902l-188 -188 q-8 -8 -20 -13t-26 -5q-12 0 -24 5t-20 13q-10 10 -15 22t-5 24z" />
<glyph unicode="&#xe641;" d="M218 -102v1980l1610 -990h2v-2l-2 2z" />
<glyph unicode="&#xe642;" d="M34 888q0 -206 78 -386t212 -314t315 -212t385 -78t385 78t315 212t212 314t78 386q0 204 -78 384t-212 316q-134 134 -315 212t-385 78t-385 -78t-315 -212q-134 -136 -212 -316t-78 -384zM146 832h404q2 -40 5 -79t7 -79q4 -38 9 -77t13 -75q-40 -14 -78 -29t-74 -31 q-34 -16 -67 -35t-65 -41q-34 50 -61 103t-47 109q-18 58 -30 116t-16 118zM146 942q4 60 15 119t31 115t47 109t61 103q32 -20 65 -39t67 -37q36 -16 74 -31t78 -27q-8 -38 -13 -76t-9 -78q-4 -38 -7 -78t-5 -80h-404zM368 302q26 16 54 32t58 30t62 27t64 23 q16 -56 34 -109t40 -99q20 -48 44 -88t50 -74q-58 16 -113 42t-107 58t-98 72t-88 86zM368 1474q42 46 88 85t98 73q52 32 107 57t113 43q-26 -34 -50 -75t-44 -87q-22 -48 -40 -100t-34 -110l-64 24t-62 26t-58 30t-54 34zM660 832h310v-246q-36 0 -72 -3t-72 -9 q-34 -4 -69 -10t-67 -14q-6 34 -11 68t-9 70t-6 72zM660 942q2 38 4 74t6 70q4 36 9 71t11 67q34 -8 68 -14t68 -10q36 -4 72 -7t72 -5v-246h-310zM714 444q30 6 61 12t63 10q34 4 66 7t66 3v-456q-38 16 -75 54t-71 92q-32 56 -61 126t-49 152zM714 1332q20 82 49 152 t61 124q34 56 71 93t75 55v-458q-34 2 -67 4t-65 8q-32 4 -63 9t-61 13zM1078 20v456q34 0 67 -3t65 -7t63 -10t63 -12q-22 -82 -51 -152t-61 -126q-34 -54 -71 -92t-75 -54zM1078 586v246h310l-4 -72t-6 -72t-9 -70t-11 -68q-32 8 -67 14t-69 10q-36 6 -72 9t-72 3z M1078 942v246q36 2 72 5t72 7q34 4 69 10t67 14q6 -32 11 -67t9 -69q4 -36 6 -72t4 -74h-310zM1078 1298v458q38 -18 75 -55t71 -93q32 -54 61 -124t49 -152q-30 -8 -61 -13t-63 -9q-32 -6 -65 -8t-67 -4zM1274 44q26 34 50 74t44 88q22 46 40 99t34 109q32 -10 64 -23 t62 -27t58 -30t54 -32q-42 -46 -88 -86t-98 -72t-107 -58t-113 -42zM1274 1732q58 -18 113 -43t107 -57q52 -34 98 -73t88 -85q-26 -18 -54 -34t-58 -30t-62 -26l-64 -24q-16 58 -34 110t-40 100q-20 46 -44 87t-50 75zM1464 522q8 36 13 74t9 78q6 38 8 78l4 80h404 q-4 -60 -15 -118t-31 -116q-20 -56 -47 -109t-61 -103q-32 22 -65 41t-67 35q-36 18 -74 32t-78 28zM1466 1254q38 12 76 27t74 31q34 18 67 37t65 39q34 -48 61 -102t47 -110q18 -56 30 -115t16 -119h-404l-4 80t-6 80q-6 38 -11 76t-11 76z" />
<glyph unicode="&#xe643;" d="M34 888q0 -206 78 -386t212 -314t314 -212t386 -78q204 0 385 78t315 212t212 314t78 386q0 204 -78 385t-212 315t-315 212t-385 78q-206 0 -386 -78t-314 -212t-212 -315t-78 -385zM794 1380q0 14 4 28q2 12 8 25t14 25q10 12 20 21t20 17q12 8 25 13t29 7q14 2 27 2 t27 -4q12 -2 24 -8t24 -14t21 -18t17 -22q6 -10 11 -23t9 -29q2 -14 2 -28t-4 -28q-2 -12 -8 -25t-14 -25q-8 -10 -18 -20t-22 -18q-10 -6 -22 -12q-14 -2 -30 -6q-14 -4 -27 -3t-27 3q-12 2 -25 8t-25 14t-21 18t-17 22q-6 12 -11 25t-7 27q-4 14 -4 28zM876 1076l232 38 l144 -812l-236 -40z" />
</font>
</defs>
</svg>
