<?xml version="1.0" encoding="utf-8"?>
<!-- Generator: Adobe Illustrator 26.3.1, SVG Export Plug-In . SVG Version: 6.00 Build 0)  -->
<svg version="1.1" id="Layer_1" xmlns="http://www.w3.org/2000/svg" xmlns:xlink="http://www.w3.org/1999/xlink" x="0px" y="0px"
	 viewBox="0 0 1140 1000" style="enable-background:new 0 0 1140 1000;" xml:space="preserve">
<style type="text/css">
	.st0{clip-path:url(#SVGID_00000024716110690211312450000010529640400687109023_);}
	
		.st1{clip-path:url(#SVGID_00000014620369667926297600000006881603834265000106_);fill:url(#SVGID_00000045596656737098686960000001698701715761588619_);}
	.st2{clip-path:url(#SVGID_00000014620369667926297600000006881603834265000106_);}
	.st3{opacity:0.39;fill:#FFFFFF;}
	.st4{opacity:0.46;fill:#FFFFFF;}
	.st5{opacity:0.72;}
</style>
<g>
	<defs>
		<rect id="SVGID_1_" width="1140" height="1000"/>
	</defs>
	<clipPath id="SVGID_00000131338858465341421510000009029270303262249372_">
		<use xlink:href="#SVGID_1_"  style="overflow:visible;"/>
	</clipPath>
	<g style="clip-path:url(#SVGID_00000131338858465341421510000009029270303262249372_);">
		<defs>
			<rect id="SVGID_00000161633518802267167150000015201889681004951944_" x="-321.6" width="1783.3" height="1000"/>
		</defs>
		<clipPath id="SVGID_00000066513440934606634360000005797980349471561362_">
			<use xlink:href="#SVGID_00000161633518802267167150000015201889681004951944_"  style="overflow:visible;"/>
		</clipPath>
		
			<linearGradient id="SVGID_00000107548922973516629460000008560231840314560186_" gradientUnits="userSpaceOnUse" x1="1009.4139" y1="-261.0872" x2="130.5861" y2="1261.0873">
			<stop  offset="0" style="stop-color:#FFFFFF"/>
			<stop  offset="0.4982" style="stop-color:#939598"/>
			<stop  offset="0.5968" style="stop-color:#9EA0A3"/>
			<stop  offset="0.7696" style="stop-color:#BBBDBF"/>
			<stop  offset="0.9767" style="stop-color:#E6E7E8"/>
		</linearGradient>
		
			<rect x="-321.6" style="clip-path:url(#SVGID_00000066513440934606634360000005797980349471561362_);fill:url(#SVGID_00000107548922973516629460000008560231840314560186_);" width="1783.3" height="1000"/>
		<g style="clip-path:url(#SVGID_00000066513440934606634360000005797980349471561362_);">
			<g>
				<g>
					<polygon class="st3" points="405.4,86.8 -53.8,453.1 319.9,886 779.1,519.6 					"/>
					<polygon class="st4" points="395.2,181.9 45.3,461 330,790.8 679.9,511.7 					"/>
				</g>
				<g class="st5">
					<polygon class="st3" points="722.7,112.1 263.5,478.4 637.1,911.3 1096.3,544.9 					"/>
					<polygon class="st4" points="712.5,207.2 362.6,486.4 647.3,816.1 997.2,537 					"/>
				</g>
			</g>
			<g>
				<g>
					<polygon class="st3" points="187.6,626.7 -271.6,993 102.1,1425.9 561.3,1059.5 					"/>
					<polygon class="st4" points="177.4,721.8 -172.4,1000.9 112.2,1330.7 462.1,1051.6 					"/>
				</g>
				<g class="st5">
					<polygon class="st3" points="504.9,652 45.7,1018.4 419.3,1451.2 878.5,1084.9 					"/>
					<polygon class="st4" points="494.7,747.2 144.8,1026.3 429.5,1356.1 779.4,1076.9 					"/>
				</g>
			</g>
			<g>
				<g>
					<polygon class="st3" points="1050.9,494.2 591.7,860.6 965.3,1293.4 1424.5,927 					"/>
					<polygon class="st4" points="1040.7,589.3 690.8,868.5 975.5,1198.2 1325.4,919.1 					"/>
				</g>
				<g class="st5">
					<polygon class="st3" points="1368.1,519.5 908.9,885.9 1282.6,1318.7 1741.8,952.4 					"/>
					<polygon class="st4" points="1358,614.7 1008.1,893.8 1292.8,1223.6 1642.6,944.5 					"/>
				</g>
			</g>
			<g>
				<g>
					<polygon class="st3" points="623,-451.6 163.8,-85.3 537.5,347.6 996.7,-18.8 					"/>
					<polygon class="st4" points="612.8,-356.5 263,-77.4 547.7,252.4 897.5,-26.7 					"/>
				</g>
				<g class="st5">
					<polygon class="st3" points="940.3,-426.3 481.1,-59.9 854.8,372.9 1314,6.6 					"/>
					<polygon class="st4" points="930.1,-331.1 580.3,-52 864.9,277.8 1214.8,-1.4 					"/>
				</g>
			</g>
			<g>
				<g>
					<polygon class="st3" points="-241.6,-319 -700.8,47.3 -327.1,480.1 132.1,113.8 					"/>
					<polygon class="st4" points="-251.8,-223.9 -601.7,55.2 -317,385 32.9,105.9 					"/>
				</g>
				<g class="st5">
					<polygon class="st3" points="75.7,-293.7 -383.5,72.6 -9.9,505.5 449.3,139.1 					"/>
					<polygon class="st4" points="65.5,-198.6 -284.4,80.6 0.3,410.3 350.2,131.2 					"/>
				</g>
			</g>
			<g>
				<g>
					<polygon class="st3" points="-142.2,245.5 -601.4,611.8 -227.7,1044.6 231.5,678.3 					"/>
					<polygon class="st4" points="-152.4,340.6 -502.3,619.7 -217.6,949.5 132.3,670.4 					"/>
				</g>
				<g class="st5">
					<polygon class="st3" points="175.1,270.8 -284.1,637.1 89.5,1070 548.7,703.6 					"/>
					<polygon class="st4" points="164.9,365.9 -185,645.1 99.7,974.8 449.6,695.7 					"/>
				</g>
			</g>
			<g>
				<g>
					<polygon class="st3" points="1225.3,-96.5 766.1,269.9 1139.8,702.7 1599,336.4 					"/>
					<polygon class="st4" points="1215.2,-1.3 865.3,277.8 1150,607.6 1499.8,328.4 					"/>
				</g>
				<g class="st5">
					<polygon class="st3" points="1542.6,-71.1 1083.4,295.2 1457.1,728 1916.3,361.7 					"/>
					<polygon class="st4" points="1532.4,24 1182.6,303.1 1467.3,632.9 1817.1,353.8 					"/>
				</g>
			</g>
		</g>
		<g style="clip-path:url(#SVGID_00000066513440934606634360000005797980349471561362_);">
			<g>
				<g>
					<polygon class="st3" points="717.2,722.5 1053.9,453.9 782.8,139.9 446.2,408.5 					"/>
					<polygon class="st4" points="725.1,653.1 981.6,448.5 775,209.2 518.5,413.9 					"/>
				</g>
				<g class="st5">
					<polygon class="st3" points="485.7,705.2 822.4,436.6 551.3,122.6 214.7,391.2 					"/>
					<polygon class="st4" points="493.5,635.8 750,431.2 543.5,191.9 287,396.6 					"/>
				</g>
			</g>
			<g>
				<g>
					<polygon class="st3" points="878.4,328.3 1215,59.7 944,-254.3 607.3,14.3 					"/>
					<polygon class="st4" points="886.2,259 1142.7,54.3 936.2,-184.9 679.6,19.7 					"/>
				</g>
				<g class="st5">
					<polygon class="st3" points="646.8,311 983.5,42.4 712.4,-271.6 375.8,-3 					"/>
					<polygon class="st4" points="654.7,241.7 911.2,37 704.6,-202.2 448.1,2.4 					"/>
				</g>
			</g>
			<g>
				<g>
					<polygon class="st3" points="247.7,428 584.3,159.4 313.3,-154.6 -23.4,114 					"/>
					<polygon class="st4" points="255.5,358.6 512,154 305.5,-85.3 48.9,119.4 					"/>
				</g>
				<g class="st5">
					<polygon class="st3" points="16.1,410.7 352.8,142.1 81.7,-171.9 -254.9,96.7 					"/>
					<polygon class="st4" points="24,341.3 280.5,136.7 73.9,-102.6 -182.6,102.1 					"/>
				</g>
			</g>
			<g>
				<g>
					<polygon class="st3" points="556.3,1115.5 892.9,846.9 621.9,532.9 285.2,801.5 					"/>
					<polygon class="st4" points="564.1,1046.2 820.6,841.5 614,602.3 357.5,806.9 					"/>
				</g>
				<g class="st5">
					<polygon class="st3" points="324.7,1098.2 661.4,829.6 390.3,515.6 53.7,784.2 					"/>
					<polygon class="st4" points="332.5,1028.9 589.1,824.2 382.5,585 126,789.6 					"/>
				</g>
			</g>
			<g>
				<g>
					<polygon class="st3" points="1188,1015.8 1524.6,747.2 1253.6,433.2 916.9,701.8 					"/>
					<polygon class="st4" points="1195.8,946.4 1452.3,741.8 1245.8,502.6 989.2,707.2 					"/>
				</g>
				<g class="st5">
					<polygon class="st3" points="956.4,998.5 1293.1,729.9 1022,415.9 685.4,684.5 					"/>
					<polygon class="st4" points="964.3,929.1 1220.8,724.5 1014.2,485.3 757.7,689.9 					"/>
				</g>
			</g>
			<g>
				<g>
					<polygon class="st3" points="1117.6,604.9 1454.3,336.3 1183.2,22.3 846.6,290.9 					"/>
					<polygon class="st4" points="1125.4,535.5 1381.9,330.9 1175.4,91.6 918.9,296.3 					"/>
				</g>
				<g class="st5">
					<polygon class="st3" points="886.1,587.6 1222.8,319 951.7,5 615,273.6 					"/>
					<polygon class="st4" points="893.9,518.2 1150.4,313.6 943.9,74.3 687.4,279 					"/>
				</g>
			</g>
			<g>
				<g>
					<polygon class="st3" points="118,859 454.6,590.4 183.6,276.4 -153.1,545 					"/>
					<polygon class="st4" points="125.8,789.6 382.3,585 175.7,345.7 -80.8,550.4 					"/>
				</g>
				<g class="st5">
					<polygon class="st3" points="-113.6,841.7 223.1,573.1 -48,259.1 -384.6,527.7 					"/>
					<polygon class="st4" points="-105.8,772.3 150.8,567.7 -55.8,328.4 -312.3,533.1 					"/>
				</g>
			</g>
		</g>
	</g>
</g>
</svg>
